<svg xmlns="http://www.w3.org/2000/svg" viewBox="-55 -55 415 290" role="img" aria-labelledby="ssa-title ssa-description" data-source-page="40">
  <title id="ssa-title">ഷ — writing diagram</title>
  <desc id="ssa-description">Redrawn from Moag, PDF page 40. Separate centerline paths represent the letter; thin arrows and numbers show writing movements.</desc>
  <g data-symbol="ssa">
    <g class="writing-ink" fill="none" stroke="currentColor" stroke-width="8" stroke-linecap="round" stroke-linejoin="round" style="stroke-width:var(--writing-stroke-width,8)">
      <path d="M43 130 C9 112 20 70 55 71 C94 72 106 104 86 127" data-part="left curl" data-movement="1" />
      <path d="M86 127 H222" data-part="baseline" data-movement="2" />
      <path d="M222 127 V10" data-part="right ascent" data-movement="3" />
      <path d="M222 10 L123 69" data-part="diagonal return" data-movement="4" />
      <path d="M123 69 C65 108 68 -29 120 16 C133 27 137 50 123 69" data-part="upper loop" data-movement="5" />
      <path d="M123 69 V127" data-part="middle descent" data-movement="6" />
    </g>
    <g class="writing-guides" fill="none" stroke="#557467" stroke-width="1.6" stroke-linecap="round" stroke-linejoin="round" style="stroke:var(--writing-guide-ink,#557467)">
      <defs>
        <marker id="ssa-arrow" markerUnits="userSpaceOnUse" viewBox="0 0 10 10" refX="8" refY="5" markerWidth="10" markerHeight="10" orient="auto">
          <path d="M1 1 L8 5 L1 9" fill="none" stroke="#557467" stroke-width="1.6" style="stroke:var(--writing-guide-ink,#557467)" />
        </marker>
      </defs>
      <g data-movement="1">
        <path d="M24 130 C-15 104 19 53 61 57 C104 62 119 96 106 116" marker-end="url(#ssa-arrow)" />
      </g>
      <g data-movement="2">
        <path d="M95 141 H213" marker-end="url(#ssa-arrow)" />
      </g>
      <g data-movement="3">
        <path d="M237 120 V17" marker-end="url(#ssa-arrow)" />
      </g>
      <g data-movement="4">
        <path d="M217 28 L124 84" marker-end="url(#ssa-arrow)" />
      </g>
      <g data-movement="5">
        <path d="M83 41 C50 4 97 -34 123 -3 C135 12 144 29 144 40" marker-end="url(#ssa-arrow)" />
      </g>
      <g data-movement="6">
        <path d="M137 78 V119" marker-end="url(#ssa-arrow)" />
      </g>
    </g>
    <g class="writing-labels" font-family="sans-serif" font-size="13" text-anchor="middle" fill="#557467" style="fill:var(--writing-guide-ink,#557467)">
      <g data-movement="1">
        <text x="91" y="59" paint-order="stroke fill" stroke="#fff" stroke-width="3" stroke-linejoin="round" style="stroke:var(--writing-background,#fff)">1</text>
      </g>
      <g data-movement="2">
        <text x="154" y="159" paint-order="stroke fill" stroke="#fff" stroke-width="3" stroke-linejoin="round" style="stroke:var(--writing-background,#fff)">2</text>
      </g>
      <g data-movement="3">
        <text x="252" y="71" paint-order="stroke fill" stroke="#fff" stroke-width="3" stroke-linejoin="round" style="stroke:var(--writing-background,#fff)">3</text>
      </g>
      <g data-movement="4">
        <text x="162" y="65" paint-order="stroke fill" stroke="#fff" stroke-width="3" stroke-linejoin="round" style="stroke:var(--writing-background,#fff)">4</text>
      </g>
      <g data-movement="5">
        <text x="107" y="-11" paint-order="stroke fill" stroke="#fff" stroke-width="3" stroke-linejoin="round" style="stroke:var(--writing-background,#fff)">5</text>
      </g>
      <g data-movement="6">
        <text x="151" y="109" paint-order="stroke fill" stroke="#fff" stroke-width="3" stroke-linejoin="round" style="stroke:var(--writing-background,#fff)">6</text>
      </g>
    </g>
  </g>
</svg>
