<svg xmlns="http://www.w3.org/2000/svg" viewBox="0 0 860 1065" role="img" aria-label="Malayalam writing symbols, Moag PDF page 27">
  <g transform="translate(100 55) scale(1)">
    <g data-symbol="vowel-a">
      <g class="writing-ink" fill="none" stroke="currentColor" stroke-width="4" stroke-linecap="round" stroke-linejoin="round" style="stroke-width:var(--writing-stroke-width,4)">
        <path d="M40 125 C-8 100 1 32 64 32" data-part="left arch" data-movement="1" />
        <path d="M64 32 C109 32 114 75 76 76" data-part="upper inner bowl" data-movement="2" />
        <path d="M76 76 C120 79 109 133 74 125" data-part="lower inner bowl" data-movement="3" />
        <path d="M74 125 C31 116 27 58 64 32" data-part="inner return" data-movement="4" />
        <path d="M64 32 C87 5 142 20 142 54 V125" data-part="middle arch and downstroke" data-movement="5" />
        <path d="M142 125 V54 C142 12 196 13 218 54" data-part="right arch" data-movement="6" />
        <path d="M218 54 C235 81 233 125 211 125" data-part="right loop down" data-movement="7" />
        <path d="M211 125 C178 125 179 59 218 54" data-part="right loop return" data-movement="8" />
      </g>
      <g class="writing-guides" fill="none" stroke="#557467" stroke-width="1.6" stroke-linecap="round" stroke-linejoin="round" style="stroke:var(--writing-guide-ink,#557467)">
        <defs>
          <marker id="vowel-a-arrow" markerUnits="userSpaceOnUse" viewBox="0 0 10 10" refX="8" refY="5" markerWidth="10" markerHeight="10" orient="auto">
            <path d="M1 1 L8 5 L1 9" fill="none" stroke="#557467" stroke-width="1.6" style="stroke:var(--writing-guide-ink,#557467)" />
          </marker>
        </defs>
        <g data-movement="1">
          <path d="M25 127 C-22 90 -5 18 55 18" marker-end="url(#vowel-a-arrow)" />
        </g>
        <g data-movement="2">
          <path d="M73 44 C101 47 102 66 84 67" marker-end="url(#vowel-a-arrow)" />
        </g>
        <g data-movement="3">
          <path d="M84 87 C104 100 97 115 84 115" marker-end="url(#vowel-a-arrow)" />
        </g>
        <g data-movement="4">
          <path d="M56 113 C32 85 36 60 49 46" marker-end="url(#vowel-a-arrow)" />
        </g>
        <g data-movement="5">
          <path d="M112 38 C129 44 131 63 131 116" marker-end="url(#vowel-a-arrow)" />
        </g>
        <g data-movement="6">
          <path d="M153 116 V60 C153 34 170 28 184 29" marker-end="url(#vowel-a-arrow)" />
        </g>
        <g data-movement="7">
          <path d="M219 69 C224 87 224 108 215 116" marker-end="url(#vowel-a-arrow)" />
        </g>
        <g data-movement="8">
          <path d="M201 113 C184 96 192 72 206 66" marker-end="url(#vowel-a-arrow)" />
        </g>
      </g>
      <g class="writing-labels" font-family="sans-serif" font-size="13" text-anchor="middle" fill="#557467" style="fill:var(--writing-guide-ink,#557467)">
        <g data-movement="1">
          <text x="0" y="83" paint-order="stroke fill" stroke="#fff" stroke-width="3" stroke-linejoin="round" style="stroke:var(--writing-background,#fff)">1</text>
        </g>
        <g data-movement="2">
          <text x="86" y="59" paint-order="stroke fill" stroke="#fff" stroke-width="3" stroke-linejoin="round" style="stroke:var(--writing-background,#fff)">2</text>
        </g>
        <g data-movement="3">
          <text x="93" y="106" paint-order="stroke fill" stroke="#fff" stroke-width="3" stroke-linejoin="round" style="stroke:var(--writing-background,#fff)">3</text>
        </g>
        <g data-movement="4">
          <text x="36" y="93" paint-order="stroke fill" stroke="#fff" stroke-width="3" stroke-linejoin="round" style="stroke:var(--writing-background,#fff)">4</text>
        </g>
        <g data-movement="5">
          <text x="122" y="86" paint-order="stroke fill" stroke="#fff" stroke-width="3" stroke-linejoin="round" style="stroke:var(--writing-background,#fff)">5</text>
        </g>
        <g data-movement="6">
          <text x="159" y="87" paint-order="stroke fill" stroke="#fff" stroke-width="3" stroke-linejoin="round" style="stroke:var(--writing-background,#fff)">6</text>
        </g>
        <g data-movement="7">
          <text x="222" y="99" paint-order="stroke fill" stroke="#fff" stroke-width="3" stroke-linejoin="round" style="stroke:var(--writing-background,#fff)">7</text>
        </g>
        <g data-movement="8">
          <text x="190" y="96" paint-order="stroke fill" stroke="#fff" stroke-width="3" stroke-linejoin="round" style="stroke:var(--writing-background,#fff)">8</text>
        </g>
      </g>
    </g>
  </g>
  <text x="215.0" y="343" font-size="22" text-anchor="middle">അ</text>
  <g transform="translate(505.976 55) scale(0.926829)">
    <g data-symbol="vowel-aa">
      <g class="writing-ink" fill="none" stroke="currentColor" stroke-width="4" stroke-linecap="round" stroke-linejoin="round" style="stroke-width:var(--writing-stroke-width,4)">
        <path d="M40 125 C-8 100 1 32 64 32" data-part="left arch" data-movement="1" />
        <path d="M64 32 C109 32 114 75 76 76" data-part="upper inner bowl" data-movement="2" />
        <path d="M76 76 C120 79 109 133 74 125" data-part="lower inner bowl" data-movement="3" />
        <path d="M74 125 C31 116 27 58 64 32" data-part="inner return" data-movement="4" />
        <path d="M64 32 C87 5 142 20 142 54 V125" data-part="middle arch and downstroke" data-movement="5" />
        <path d="M142 125 V54 C142 12 196 13 218 54" data-part="right arch" data-movement="6" />
        <path d="M218 54 C235 81 233 125 211 125" data-part="right loop down" data-movement="7" />
        <path d="M211 125 C178 125 179 59 218 54" data-part="right loop return" data-movement="8" />
        <path d="M218 54 C296 58 302 158 252 158 C237 158 224 152 218 145" data-part="long-vowel extension" data-movement="9" />
      </g>
      <g class="writing-guides" fill="none" stroke="#557467" stroke-width="1.6" stroke-linecap="round" stroke-linejoin="round" style="stroke:var(--writing-guide-ink,#557467)">
        <defs>
          <marker id="vowel-aa-arrow" markerUnits="userSpaceOnUse" viewBox="0 0 10 10" refX="8" refY="5" markerWidth="10" markerHeight="10" orient="auto">
            <path d="M1 1 L8 5 L1 9" fill="none" stroke="#557467" stroke-width="1.6" style="stroke:var(--writing-guide-ink,#557467)" />
          </marker>
        </defs>
        <g data-movement="1">
          <path d="M25 127 C-22 90 -5 18 55 18" marker-end="url(#vowel-aa-arrow)" />
        </g>
        <g data-movement="2">
          <path d="M73 44 C101 47 102 66 84 67" marker-end="url(#vowel-aa-arrow)" />
        </g>
        <g data-movement="3">
          <path d="M84 87 C104 100 97 115 84 115" marker-end="url(#vowel-aa-arrow)" />
        </g>
        <g data-movement="4">
          <path d="M56 113 C32 85 36 60 49 46" marker-end="url(#vowel-aa-arrow)" />
        </g>
        <g data-movement="5">
          <path d="M112 38 C129 44 131 63 131 116" marker-end="url(#vowel-aa-arrow)" />
        </g>
        <g data-movement="6">
          <path d="M153 116 V60 C153 34 170 28 184 29" marker-end="url(#vowel-aa-arrow)" />
        </g>
        <g data-movement="7">
          <path d="M219 69 C224 87 224 108 215 116" marker-end="url(#vowel-aa-arrow)" />
        </g>
        <g data-movement="8">
          <path d="M201 113 C184 96 192 72 206 66" marker-end="url(#vowel-aa-arrow)" />
        </g>
        <g data-movement="9">
          <path d="M252 58 C311 82 315 153 269 171" marker-end="url(#vowel-aa-arrow)" />
        </g>
      </g>
      <g class="writing-labels" font-family="sans-serif" font-size="13" text-anchor="middle" fill="#557467" style="fill:var(--writing-guide-ink,#557467)">
        <g data-movement="1">
          <text x="0" y="83" paint-order="stroke fill" stroke="#fff" stroke-width="3" stroke-linejoin="round" style="stroke:var(--writing-background,#fff)">1</text>
        </g>
        <g data-movement="2">
          <text x="86" y="59" paint-order="stroke fill" stroke="#fff" stroke-width="3" stroke-linejoin="round" style="stroke:var(--writing-background,#fff)">2</text>
        </g>
        <g data-movement="3">
          <text x="93" y="106" paint-order="stroke fill" stroke="#fff" stroke-width="3" stroke-linejoin="round" style="stroke:var(--writing-background,#fff)">3</text>
        </g>
        <g data-movement="4">
          <text x="36" y="93" paint-order="stroke fill" stroke="#fff" stroke-width="3" stroke-linejoin="round" style="stroke:var(--writing-background,#fff)">4</text>
        </g>
        <g data-movement="5">
          <text x="122" y="86" paint-order="stroke fill" stroke="#fff" stroke-width="3" stroke-linejoin="round" style="stroke:var(--writing-background,#fff)">5</text>
        </g>
        <g data-movement="6">
          <text x="159" y="87" paint-order="stroke fill" stroke="#fff" stroke-width="3" stroke-linejoin="round" style="stroke:var(--writing-background,#fff)">6</text>
        </g>
        <g data-movement="7">
          <text x="222" y="99" paint-order="stroke fill" stroke="#fff" stroke-width="3" stroke-linejoin="round" style="stroke:var(--writing-background,#fff)">7</text>
        </g>
        <g data-movement="8">
          <text x="190" y="96" paint-order="stroke fill" stroke="#fff" stroke-width="3" stroke-linejoin="round" style="stroke:var(--writing-background,#fff)">8</text>
        </g>
        <g data-movement="9">
          <text x="299" y="120" paint-order="stroke fill" stroke="#fff" stroke-width="3" stroke-linejoin="round" style="stroke:var(--writing-background,#fff)">9</text>
        </g>
      </g>
    </g>
  </g>
  <text x="645.0" y="343" font-size="22" text-anchor="middle">ആ</text>
  <g transform="translate(110.323 410) scale(0.951613)">
    <g data-symbol="vowel-i">
      <g class="writing-ink" fill="none" stroke="currentColor" stroke-width="4" stroke-linecap="round" stroke-linejoin="round" style="stroke-width:var(--writing-stroke-width,4)">
        <path d="M40 95 C40 72 72 72 72 95 C72 118 40 118 40 95" data-part="loop" data-movement="1" />
        <path d="M40 95 C17 16 120 6 120 59 V104" data-part="left arch" data-movement="2" />
        <path d="M120 104 V59 C120 9 181 7 181 57 V112" data-part="right arch" data-movement="3" />
        <path d="M181 112 C181 137 159 143 139 143 H50" data-part="lower return" data-movement="4" />
        <path d="M50 143 C13 143 13 169 50 169 H190" data-part="baseline turn" data-movement="5" />
      </g>
      <g class="writing-guides" fill="none" stroke="#557467" stroke-width="1.6" stroke-linecap="round" stroke-linejoin="round" style="stroke:var(--writing-guide-ink,#557467)">
        <defs>
          <marker id="vowel-i-arrow" markerUnits="userSpaceOnUse" viewBox="0 0 10 10" refX="8" refY="5" markerWidth="10" markerHeight="10" orient="auto">
            <path d="M1 1 L8 5 L1 9" fill="none" stroke="#557467" stroke-width="1.6" style="stroke:var(--writing-guide-ink,#557467)" />
          </marker>
          <marker id="vowel-i-arrow-0" markerUnits="userSpaceOnUse" viewBox="0 0 10 10" refX="8" refY="5" markerWidth="6" markerHeight="6" orient="auto">
            <path d="M1 1 L8 5 L1 9" fill="none" stroke="#557467" stroke-width="1.6" style="stroke:var(--writing-guide-ink,#557467)" />
          </marker>
        </defs>
        <g data-movement="1">
          <path d="M46 89 C58 76 68 88 64 100 C60 110 47 105 47 99" marker-end="url(#vowel-i-arrow-0)" />
        </g>
        <g data-movement="2">
          <path d="M23 87 C10 8 83 -4 108 22" marker-end="url(#vowel-i-arrow)" />
        </g>
        <g data-movement="3">
          <path d="M130 94 V58 C130 34 143 25 157 26" marker-end="url(#vowel-i-arrow)" />
        </g>
        <g data-movement="4">
          <path d="M170 120 C166 133 137 131 95 132" marker-end="url(#vowel-i-arrow)" />
        </g>
        <g data-movement="5">
          <path d="M32 141 C3 152 14 183 57 183" marker-end="url(#vowel-i-arrow)" />
        </g>
      </g>
      <g class="writing-labels" font-family="sans-serif" font-size="13" text-anchor="middle" fill="#557467" style="fill:var(--writing-guide-ink,#557467)">
        <g data-movement="1">
          <text x="56" y="100" paint-order="stroke fill" stroke="#fff" stroke-width="3" stroke-linejoin="round" style="stroke:var(--writing-background,#fff)">1</text>
        </g>
        <g data-movement="2">
          <text x="64" y="11" paint-order="stroke fill" stroke="#fff" stroke-width="3" stroke-linejoin="round" style="stroke:var(--writing-background,#fff)">2</text>
        </g>
        <g data-movement="3">
          <text x="141" y="56" paint-order="stroke fill" stroke="#fff" stroke-width="3" stroke-linejoin="round" style="stroke:var(--writing-background,#fff)">3</text>
        </g>
        <g data-movement="4">
          <text x="139" y="124" paint-order="stroke fill" stroke="#fff" stroke-width="3" stroke-linejoin="round" style="stroke:var(--writing-background,#fff)">4</text>
        </g>
        <g data-movement="5">
          <text x="13" y="168" paint-order="stroke fill" stroke="#fff" stroke-width="3" stroke-linejoin="round" style="stroke:var(--writing-background,#fff)">5</text>
        </g>
      </g>
    </g>
  </g>
  <text x="215.0" y="698" font-size="22" text-anchor="middle">ഇ</text>
  <g transform="translate(503.046 410) scale(0.873563)">
    <g data-symbol="vowel-ii">
      <g class="writing-ink" fill="none" stroke="currentColor" stroke-width="4" stroke-linecap="round" stroke-linejoin="round" style="stroke-width:var(--writing-stroke-width,4)">
        <path d="M40 95 C40 72 72 72 72 95 C72 118 40 118 40 95" data-part="loop" data-movement="1" />
        <path d="M40 95 C17 16 120 6 120 59 V104" data-part="left arch" data-movement="2" />
        <path d="M120 104 V59 C120 9 181 7 181 57 V112" data-part="right arch" data-movement="3" />
        <path d="M181 112 C181 137 159 143 139 143 H50" data-part="lower return" data-movement="4" />
        <path d="M50 143 C13 143 13 169 50 169 H190" data-part="baseline turn" data-movement="5" />
        <path d="M20 85 V52 C20 24 54 24 54 52 V85" data-part="first arch" transform="translate(204 12) scale(0.85)" data-movement="6" />
        <path d="M54 52 C54 24 88 24 88 52 V110 C88 138 42 138 42 110" data-part="second arch and bowl" transform="translate(204 12) scale(0.85)" data-movement="7" />
      </g>
      <g class="writing-guides" fill="none" stroke="#557467" stroke-width="1.6" stroke-linecap="round" stroke-linejoin="round" style="stroke:var(--writing-guide-ink,#557467)">
        <defs>
          <marker id="vowel-ii-arrow" markerUnits="userSpaceOnUse" viewBox="0 0 10 10" refX="8" refY="5" markerWidth="10" markerHeight="10" orient="auto">
            <path d="M1 1 L8 5 L1 9" fill="none" stroke="#557467" stroke-width="1.6" style="stroke:var(--writing-guide-ink,#557467)" />
          </marker>
          <marker id="vowel-ii-arrow-0" markerUnits="userSpaceOnUse" viewBox="0 0 10 10" refX="8" refY="5" markerWidth="6" markerHeight="6" orient="auto">
            <path d="M1 1 L8 5 L1 9" fill="none" stroke="#557467" stroke-width="1.6" style="stroke:var(--writing-guide-ink,#557467)" />
          </marker>
        </defs>
        <g data-movement="1">
          <path d="M46 89 C58 76 68 88 64 100 C60 110 47 105 47 99" marker-end="url(#vowel-ii-arrow-0)" />
        </g>
        <g data-movement="2">
          <path d="M23 87 C10 8 83 -4 108 22" marker-end="url(#vowel-ii-arrow)" />
        </g>
        <g data-movement="3">
          <path d="M130 94 V58 C130 34 143 25 157 26" marker-end="url(#vowel-ii-arrow)" />
        </g>
        <g data-movement="4">
          <path d="M170 120 C166 133 137 131 95 132" marker-end="url(#vowel-ii-arrow)" />
        </g>
        <g data-movement="5">
          <path d="M32 141 C3 152 14 183 57 183" marker-end="url(#vowel-ii-arrow)" />
        </g>
        <g transform="translate(204 12) scale(0.85)" data-movement="6">
          <path d="M28 78 V52 C28 34 46 34 46 52 V78" marker-end="url(#vowel-ii-arrow)" />
        </g>
        <g transform="translate(204 12) scale(0.85)" data-movement="7">
          <path d="M62 78 V52 C62 34 80 34 80 52 V108 C80 128 53 130 51 116" marker-end="url(#vowel-ii-arrow)" />
        </g>
      </g>
      <g class="writing-labels" font-family="sans-serif" font-size="13" text-anchor="middle" fill="#557467" style="fill:var(--writing-guide-ink,#557467)">
        <g data-movement="1">
          <text x="56" y="100" paint-order="stroke fill" stroke="#fff" stroke-width="3" stroke-linejoin="round" style="stroke:var(--writing-background,#fff)">1</text>
        </g>
        <g data-movement="2">
          <text x="64" y="11" paint-order="stroke fill" stroke="#fff" stroke-width="3" stroke-linejoin="round" style="stroke:var(--writing-background,#fff)">2</text>
        </g>
        <g data-movement="3">
          <text x="141" y="56" paint-order="stroke fill" stroke="#fff" stroke-width="3" stroke-linejoin="round" style="stroke:var(--writing-background,#fff)">3</text>
        </g>
        <g data-movement="4">
          <text x="139" y="124" paint-order="stroke fill" stroke="#fff" stroke-width="3" stroke-linejoin="round" style="stroke:var(--writing-background,#fff)">4</text>
        </g>
        <g data-movement="5">
          <text x="13" y="168" paint-order="stroke fill" stroke="#fff" stroke-width="3" stroke-linejoin="round" style="stroke:var(--writing-background,#fff)">5</text>
        </g>
        <g transform="translate(204 12) scale(0.85)" data-movement="6">
          <text x="37" y="62" paint-order="stroke fill" stroke="#fff" stroke-width="3" stroke-linejoin="round" style="stroke:var(--writing-background,#fff)">6</text>
        </g>
        <g transform="translate(204 12) scale(0.85)" data-movement="7">
          <text x="72" y="98" paint-order="stroke fill" stroke="#fff" stroke-width="3" stroke-linejoin="round" style="stroke:var(--writing-background,#fff)">7</text>
        </g>
      </g>
    </g>
  </g>
  <text x="645.0" y="698" font-size="22" text-anchor="middle">ഈ</text>
  <g transform="translate(129.355 765) scale(0.951613)">
    <g data-symbol="vowel-u">
      <g class="writing-ink" fill="none" stroke="currentColor" stroke-width="4" stroke-linecap="round" stroke-linejoin="round" style="stroke-width:var(--writing-stroke-width,4)">
        <path d="M40 95 C40 72 72 72 72 95 C72 118 40 118 40 95" data-part="loop" data-movement="1" />
        <path d="M40 95 C12 5 147 8 135 85 C131 117 115 141 84 140" data-part="outer arch" data-movement="2" />
        <path d="M84 140 H46 C14 140 14 169 46 169 H151" data-part="baseline turn" data-movement="3" />
      </g>
      <g class="writing-guides" fill="none" stroke="#557467" stroke-width="1.6" stroke-linecap="round" stroke-linejoin="round" style="stroke:var(--writing-guide-ink,#557467)">
        <defs>
          <marker id="vowel-u-arrow" markerUnits="userSpaceOnUse" viewBox="0 0 10 10" refX="8" refY="5" markerWidth="10" markerHeight="10" orient="auto">
            <path d="M1 1 L8 5 L1 9" fill="none" stroke="#557467" stroke-width="1.6" style="stroke:var(--writing-guide-ink,#557467)" />
          </marker>
          <marker id="vowel-u-arrow-0" markerUnits="userSpaceOnUse" viewBox="0 0 10 10" refX="8" refY="5" markerWidth="6" markerHeight="6" orient="auto">
            <path d="M1 1 L8 5 L1 9" fill="none" stroke="#557467" stroke-width="1.6" style="stroke:var(--writing-guide-ink,#557467)" />
          </marker>
        </defs>
        <g data-movement="1">
          <path d="M46 89 C58 76 68 88 64 100 C60 110 47 105 47 99" marker-end="url(#vowel-u-arrow-0)" />
        </g>
        <g data-movement="2">
          <path d="M26 86 C13 -8 156 2 148 84 C146 113 130 143 106 151" marker-end="url(#vowel-u-arrow)" />
        </g>
        <g data-movement="3">
          <path d="M32 138 C4 148 8 184 49 184" marker-end="url(#vowel-u-arrow)" />
        </g>
      </g>
      <g class="writing-labels" font-family="sans-serif" font-size="13" text-anchor="middle" fill="#557467" style="fill:var(--writing-guide-ink,#557467)">
        <g data-movement="1">
          <text x="56" y="100" paint-order="stroke fill" stroke="#fff" stroke-width="3" stroke-linejoin="round" style="stroke:var(--writing-background,#fff)">1</text>
        </g>
        <g data-movement="2">
          <text x="118" y="22" paint-order="stroke fill" stroke="#fff" stroke-width="3" stroke-linejoin="round" style="stroke:var(--writing-background,#fff)">2</text>
        </g>
        <g data-movement="3">
          <text x="15" y="171" paint-order="stroke fill" stroke="#fff" stroke-width="3" stroke-linejoin="round" style="stroke:var(--writing-background,#fff)">3</text>
        </g>
      </g>
    </g>
  </g>
  <text x="215.0" y="1053" font-size="22" text-anchor="middle">ഉ</text>
  <g transform="translate(506.605 765) scale(0.938272)">
    <g data-symbol="vowel-uu">
      <g class="writing-ink" fill="none" stroke="currentColor" stroke-width="4" stroke-linecap="round" stroke-linejoin="round" style="stroke-width:var(--writing-stroke-width,4)">
        <path d="M40 95 C40 72 72 72 72 95 C72 118 40 118 40 95" data-part="loop" data-movement="1" />
        <path d="M40 95 C12 5 147 8 135 85 C131 117 115 141 84 140" data-part="outer arch" data-movement="2" />
        <path d="M84 140 H46 C14 140 14 169 46 169 H151" data-part="baseline turn" data-movement="3" />
        <path d="M20 85 V52 C20 24 54 24 54 52 V85" data-part="first arch" transform="translate(174 12) scale(0.9)" data-movement="4" />
        <path d="M54 52 C54 24 88 24 88 52 V110 C88 138 42 138 42 110" data-part="second arch and bowl" transform="translate(174 12) scale(0.9)" data-movement="5" />
      </g>
      <g class="writing-guides" fill="none" stroke="#557467" stroke-width="1.6" stroke-linecap="round" stroke-linejoin="round" style="stroke:var(--writing-guide-ink,#557467)">
        <defs>
          <marker id="vowel-uu-arrow" markerUnits="userSpaceOnUse" viewBox="0 0 10 10" refX="8" refY="5" markerWidth="10" markerHeight="10" orient="auto">
            <path d="M1 1 L8 5 L1 9" fill="none" stroke="#557467" stroke-width="1.6" style="stroke:var(--writing-guide-ink,#557467)" />
          </marker>
          <marker id="vowel-uu-arrow-0" markerUnits="userSpaceOnUse" viewBox="0 0 10 10" refX="8" refY="5" markerWidth="6" markerHeight="6" orient="auto">
            <path d="M1 1 L8 5 L1 9" fill="none" stroke="#557467" stroke-width="1.6" style="stroke:var(--writing-guide-ink,#557467)" />
          </marker>
        </defs>
        <g data-movement="1">
          <path d="M46 89 C58 76 68 88 64 100 C60 110 47 105 47 99" marker-end="url(#vowel-uu-arrow-0)" />
        </g>
        <g data-movement="2">
          <path d="M26 86 C13 -8 156 2 148 84 C146 113 130 143 106 151" marker-end="url(#vowel-uu-arrow)" />
        </g>
        <g data-movement="3">
          <path d="M32 138 C4 148 8 184 49 184" marker-end="url(#vowel-uu-arrow)" />
        </g>
        <g transform="translate(174 12) scale(0.9)" data-movement="4">
          <path d="M28 78 V52 C28 34 46 34 46 52 V78" marker-end="url(#vowel-uu-arrow)" />
        </g>
        <g transform="translate(174 12) scale(0.9)" data-movement="5">
          <path d="M62 78 V52 C62 34 80 34 80 52 V108 C80 128 53 130 51 116" marker-end="url(#vowel-uu-arrow)" />
        </g>
      </g>
      <g class="writing-labels" font-family="sans-serif" font-size="13" text-anchor="middle" fill="#557467" style="fill:var(--writing-guide-ink,#557467)">
        <g data-movement="1">
          <text x="56" y="100" paint-order="stroke fill" stroke="#fff" stroke-width="3" stroke-linejoin="round" style="stroke:var(--writing-background,#fff)">1</text>
        </g>
        <g data-movement="2">
          <text x="118" y="22" paint-order="stroke fill" stroke="#fff" stroke-width="3" stroke-linejoin="round" style="stroke:var(--writing-background,#fff)">2</text>
        </g>
        <g data-movement="3">
          <text x="15" y="171" paint-order="stroke fill" stroke="#fff" stroke-width="3" stroke-linejoin="round" style="stroke:var(--writing-background,#fff)">3</text>
        </g>
        <g transform="translate(174 12) scale(0.9)" data-movement="4">
          <text x="37" y="62" paint-order="stroke fill" stroke="#fff" stroke-width="3" stroke-linejoin="round" style="stroke:var(--writing-background,#fff)">4</text>
        </g>
        <g transform="translate(174 12) scale(0.9)" data-movement="5">
          <text x="72" y="98" paint-order="stroke fill" stroke="#fff" stroke-width="3" stroke-linejoin="round" style="stroke:var(--writing-background,#fff)">5</text>
        </g>
      </g>
    </g>
  </g>
  <text x="645.0" y="1053" font-size="22" text-anchor="middle">ഊ</text>
</svg>
