<svg xmlns="http://www.w3.org/2000/svg" viewBox="-16 -16 1303.02 1560.59" preserveAspectRatio="xMidYMid meet" role="img" aria-labelledby="front-writing-042-title">
  <title id="front-writing-042-title">Source writing table with numbered strokes and direction arrows</title>
  <g transform="translate(-79.977076,1724.891191) scale(0.100000,-0.100000)" fill="currentColor" stroke="none">
    <path d="M2203 17243 c-26 -5 -31 -23 -8 -23 8 0 15 -1 15 -2 1 -2 3 -48 6 -102 6 -93 4 -101 -15 -115 -20 -15 -19 -16 24 -17 25 0 45 3 45 8 0 4 -7 8 -15 8 -11 0 -15 13 -15 53 0 59 12 77 51 77 32 0 39 -14 39 -85 0 -46 3 -53 23 -59 31 -8 37 -7 37 4 0 6 -6 10 -14 10 -10 0 -15 18 -18 60 -6 82 -27 104 -80 85 l-38 -13 0 59 c0 33 -3 58 -7 58 -5 -1 -18 -4 -30 -6z" />
    <path d="M3275 17226 c-14 -14 -25 -37 -25 -52 0 -15 -8 -33 -17 -40 -17 -13 -17 -13 0 -14 14 0 17 -10 17 -60 0 -54 -3 -62 -22 -70 -19 -7 -14 -9 25 -9 26 -1 47 4 47 9 0 6 -6 9 -12 8 -9 -2 -14 16 -16 60 -3 61 -2 62 23 62 14 0 25 5 25 10 0 6 -12 10 -26 10 -23 0 -25 3 -22 38 3 32 7 37 31 40 16 2 27 8 24 15 -7 21 -27 18 -52 -7z" />
    <path d="M3588 17243 c-21 -5 -24 -23 -4 -23 11 0 14 -23 15 -110 1 -70 -2 -110 -9 -110 -5 0 -10 -3 -10 -7 0 -10 57 -9 67 0 3 4 -1 7 -10 7 -14 0 -17 10 -17 53 0 29 5 58 12 65 14 14 64 16 73 2 6 -10 13 -65 14 -110 1 -19 7 -25 26 -26 14 -1 25 2 25 7 0 5 -7 9 -15 9 -11 0 -15 12 -15 50 0 90 -34 124 -92 94 l-30 -15 2 43 c3 62 1 78 -7 77 -5 -1 -16 -3 -25 -6z" />
    <path d="M6228 17243 c-19 -5 -24 -19 -9 -25 5 -1 12 -51 16 -110 5 -94 4 -108 -9 -108 -9 0 -16 -4 -16 -8 0 -4 18 -8 40 -8 22 0 40 3 40 8 0 4 -7 8 -15 8 -11 0 -15 13 -15 53 0 59 12 77 51 77 32 0 39 -14 39 -86 0 -52 1 -54 28 -54 23 1 24 2 10 11 -14 8 -18 22 -17 63 1 30 -2 59 -6 65 -11 20 -57 33 -69 21 -24 -24 -36 -10 -36 45 0 30 -3 54 -7 54 -5 -1 -16 -3 -25 -6z" />
    <path d="M7055 17242 c-26 -5 -44 -22 -23 -22 22 0 24 -11 27 -121 2 -91 1 -96 -21 -107 -20 -9 -17 -11 27 -11 44 0 48 1 32 13 -14 11 -17 25 -15 67 3 48 6 55 30 63 42 15 58 -6 58 -74 0 -44 4 -59 16 -64 24 -9 44 -7 44 4 0 6 -6 9 -12 8 -8 -2 -15 18 -19 59 -3 34 -12 69 -19 78 -14 17 -65 20 -75 5 -14 -23 -24 -6 -27 48 -3 51 -5 57 -23 54z" />
    <path d="M9120 17243 c-43 -12 -45 -15 -22 -24 21 -8 22 -14 22 -114 0 -100 -1 -106 -22 -115 -18 -7 -11 -9 31 -9 30 -1 51 2 47 7 -4 4 -13 7 -19 7 -8 0 -14 39 -17 126 -4 105 -7 125 -20 122z" />
    <path d="M879 17124 c-29 -78 -50 -118 -61 -121 -33 -10 -18 -23 25 -23 37 1 40 2 24 14 -14 11 -15 19 -8 38 8 20 19 26 56 31 55 8 61 6 69 -29 5 -19 2 -30 -11 -40 -16 -12 -13 -13 29 -14 48 0 73 14 40 23 -13 3 -32 39 -62 113 -23 60 -46 113 -50 117 -4 4 -27 -45 -51 -109z m65 13 c9 -23 16 -46 16 -50 0 -4 -18 -7 -40 -7 -22 0 -40 1 -40 3 0 15 34 97 40 97 4 0 15 -19 24 -43z" />
    <path d="M1440 17229 c-25 -3 -38 -7 -29 -7 23 -3 25 -13 28 -125 2 -93 1 -98 -21 -106 -19 -8 -13 -10 30 -10 30 -1 52 3 52 10 0 5 -4 8 -9 4 -15 -9 -25 16 -26 62 l-2 43 44 0 c37 0 43 -3 43 -21 0 -11 4 -17 10 -14 11 7 10 74 -2 81 -4 3 -8 -2 -8 -10 0 -12 -11 -16 -46 -16 l-45 0 3 48 c3 47 3 47 42 50 32 3 43 -1 58 -20 l18 -23 0 28 c0 28 0 28 -70 31 -14 1 -45 -1 -70 -5z" />
    <path d="M12300 17230 c-16 -5 -19 -8 -8 -9 19 -1 34 -42 24 -67 -4 -11 -13 -14 -28 -11 -32 9 -86 -18 -93 -46 -12 -47 -1 -89 28 -111 27 -20 29 -20 57 -4 17 10 32 13 35 7 4 -5 18 -8 33 -8 17 1 21 3 10 6 -16 4 -18 19 -18 129 0 68 -3 124 -7 123 -5 -1 -19 -5 -33 -9z m-6 -110 c22 -8 26 -16 26 -49 0 -53 -24 -77 -70 -71 -55 6 -51 130 5 130 8 0 25 -4 39 -10z" />
    <path d="M12515 17230 c-18 -7 -19 -8 -2 -15 15 -6 17 -22 17 -120 l0 -112 31 -7 c45 -9 44 -9 78 20 77 65 28 184 -59 139 l-30 -16 0 61 c0 62 -1 64 -35 50z m129 -126 c3 -9 6 -31 6 -50 0 -44 -38 -73 -75 -56 -21 10 -25 19 -25 55 0 24 5 48 12 55 18 18 75 15 82 -4z" />
    <path d="M13156 17231 c-19 -7 -19 -8 1 -13 19 -5 21 -13 22 -112 1 -87 -1 -107 -14 -112 -26 -10 -16 -19 20 -18 35 1 64 14 32 14 -14 0 -17 10 -17 55 0 46 4 57 24 70 13 8 30 13 38 10 20 -8 36 -63 28 -95 -10 -36 -1 -50 29 -49 17 1 20 3 9 6 -15 4 -18 16 -18 67 0 87 -34 118 -88 80 l-22 -15 0 60 c0 63 -4 68 -44 52z" />
    <path d="M6747 17224 c-8 -8 1 -24 14 -24 5 0 9 7 9 15 0 15 -12 20 -23 9z" />
    <path d="M9635 17216 c-22 -8 -53 -17 -69 -21 -42 -9 -96 -69 -96 -106 0 -31 22 -75 49 -96 27 -23 34 -14 8 11 -14 13 -30 41 -36 61 -9 33 -7 42 10 66 19 27 63 48 75 36 3 -3 1 -14 -5 -25 -17 -32 -13 -84 9 -119 49 -82 154 -25 109 59 -8 14 -8 23 0 31 17 17 13 41 -9 65 -21 22 -21 22 -1 22 27 0 91 -31 92 -44 0 -6 2 -48 3 -93 3 -114 16 -117 16 -5 0 101 11 124 65 138 28 7 90 -15 67 -23 -24 -9 -54 -83 -48 -117 9 -45 33 -76 60 -76 38 0 50 25 49 103 -1 69 -3 73 -37 104 -43 40 -103 46 -136 13 -23 -23 -36 -25 -47 -7 -7 12 -65 38 -82 37 -3 -1 -24 -7 -46 -14z m43 -70 c3 -12 -5 -27 -19 -37 -20 -15 -21 -19 -7 -19 21 0 42 -36 34 -56 -7 -20 -47 -33 -70 -24 -20 7 -48 71 -41 93 25 70 23 68 62 65 28 -2 39 -8 41 -22z m287 -5 c13 -21 7 -113 -8 -128 -48 -48 -98 66 -51 118 18 20 49 25 59 10z" />
    <path d="M10210 17206 c0 -8 7 -16 15 -20 10 -4 15 1 15 14 0 11 -7 20 -15 20 -8 0 -15 -6 -15 -14z" />
    <path d="M2109 17205 c-4 -5 -10 -25 -14 -43 -3 -18 -10 -30 -15 -27 -5 3 -11 1 -15 -5 -3 -5 1 -10 9 -10 17 0 32 -57 23 -90 -10 -39 48 -71 60 -33 3 7 -3 9 -16 6 -20 -5 -21 -1 -21 56 0 58 1 61 25 61 14 0 25 5 25 10 0 6 -11 10 -24 10 -21 0 -25 5 -28 38 -2 20 -6 33 -9 27z" />
    <path d="M3493 17203 c-7 -3 -13 -18 -13 -33 0 -17 -7 -33 -17 -39 -17 -10 -17 -10 0 -11 14 0 17 -10 17 -59 0 -64 15 -87 50 -76 25 8 27 23 3 21 -15 -1 -19 9 -21 57 -3 51 -1 57 17 57 11 0 23 5 26 10 3 6 -5 10 -19 10 -21 0 -25 5 -28 33 -2 22 -7 32 -15 30z" />
    <path d="M5639 17198 c0 -2 -2 -16 -3 -31 -1 -16 -8 -32 -16 -37 -13 -8 -12 -10 2 -10 14 0 17 -10 17 -61 0 -34 4 -66 9 -71 12 -12 44 -7 49 9 3 7 -3 9 -16 6 -20 -5 -21 -1 -21 56 0 54 2 61 19 61 11 0 23 5 26 10 4 6 -5 10 -19 10 -22 0 -26 4 -26 30 0 17 -4 30 -10 30 -5 0 -10 -1 -11 -2z" />
    <path d="M6120 17174 c0 -15 -8 -33 -17 -40 -17 -13 -17 -13 0 -14 14 0 17 -10 17 -64 0 -50 4 -65 16 -70 20 -8 54 2 54 14 0 5 -7 7 -16 3 -23 -8 -34 14 -34 70 0 43 2 47 24 47 14 0 28 5 31 10 4 6 -7 10 -26 10 -29 0 -31 2 -27 30 3 20 0 30 -9 30 -7 0 -13 -11 -13 -26z" />
    <path d="M7987 17193 c-4 -3 -7 -17 -7 -29 0 -13 -8 -28 -17 -33 -17 -10 -17 -10 0 -11 14 0 17 -9 17 -53 0 -59 17 -91 45 -86 24 5 31 27 8 25 -15 -1 -18 8 -21 57 l-3 57 31 0 c18 0 29 4 25 10 -3 6 -17 10 -31 10 -20 0 -24 5 -24 30 0 29 -9 38 -23 23z" />
    <path d="M13067 17193 c-4 -3 -7 -19 -7 -35 0 -18 -5 -28 -15 -28 -8 0 -15 -4 -15 -10 0 -5 6 -9 13 -7 8 1 13 -17 15 -60 3 -67 18 -89 52 -78 25 8 26 25 1 25 -23 0 -27 12 -27 70 1 42 3 45 31 49 l30 4 -30 6 c-27 6 -30 10 -27 39 2 30 -6 40 -21 25z" />
    <path d="M1648 17139 c-54 -40 -45 -137 13 -158 44 -15 86 4 104 46 19 44 11 76 -27 108 -36 30 -54 31 -90 4z m76 -12 c26 -19 33 -93 11 -117 -42 -46 -95 -9 -95 67 0 57 41 81 84 50z" />
    <path d="M2604 17149 c-53 -19 -73 -110 -34 -149 20 -20 71 -27 104 -14 29 11 16 23 -13 13 -34 -12 -64 0 -81 31 -12 23 -8 26 58 35 45 6 52 10 52 29 0 39 -48 70 -86 55z m44 -21 c7 -7 12 -20 12 -30 0 -15 -8 -18 -46 -18 -42 0 -45 1 -38 23 11 36 48 49 72 25z" />
    <path d="M3070 17147 c-13 -7 -30 -24 -37 -37 -46 -90 51 -177 122 -110 67 63 -5 187 -85 147z m56 -15 c6 -4 16 -17 23 -29 37 -72 -32 -150 -84 -93 -21 23 -24 92 -5 115 13 16 47 20 66 7z" />
    <path d="M3839 17146 c-77 -38 -54 -166 30 -166 35 0 61 9 61 21 0 5 -10 5 -22 0 -42 -15 -88 5 -88 39 0 13 13 19 58 26 49 8 57 12 54 29 -8 46 -54 71 -93 51z m49 -18 c7 -7 12 -20 12 -30 0 -14 -8 -18 -40 -18 -33 0 -40 3 -40 20 0 32 45 51 68 28z" />
    <path d="M4131 17146 c-29 -16 -50 -52 -50 -86 0 -60 77 -101 125 -65 17 13 16 14 -17 8 -29 -4 -41 -1 -58 16 -28 28 -29 96 -2 111 32 17 61 12 70 -12 8 -22 8 -22 14 2 10 39 -34 53 -82 26z" />
    <path d="M4273 17136 c-23 -20 -28 -32 -28 -71 0 -55 28 -85 79 -85 77 0 111 108 51 156 -38 30 -67 30 -102 0z m85 -9 c6 -7 14 -31 17 -53 9 -53 -18 -90 -59 -80 -40 10 -57 66 -36 120 7 20 17 26 39 26 15 0 33 -6 39 -13z" />
    <path d="M4453 17152 c-25 -4 -32 -22 -8 -22 12 0 15 -14 15 -65 0 -55 -3 -65 -17 -66 -10 -1 0 -5 22 -8 45 -7 57 -4 35 9 -17 11 -23 85 -8 113 11 22 64 23 72 1 3 -9 6 -40 6 -70 0 -51 1 -54 26 -54 23 0 24 1 10 16 -11 10 -16 34 -16 69 0 75 -31 103 -80 73 -14 -9 -23 -10 -28 -3 -4 6 -17 9 -29 7z" />
    <path d="M4672 17144 c-24 -17 -29 -56 -9 -71 6 -6 29 -16 50 -22 41 -14 48 -34 16 -51 -30 -16 -69 -4 -69 21 0 11 -4 18 -9 15 -4 -3 -8 -16 -7 -28 1 -19 7 -24 39 -26 52 -4 89 20 85 56 -2 20 -11 29 -33 35 -48 15 -60 23 -60 43 0 29 49 31 69 2 l16 -22 0 22 c0 15 -9 26 -26 32 -33 13 -36 13 -62 -6z" />
    <path d="M4836 17138 c-80 -69 -10 -195 83 -150 78 37 61 152 -25 168 -23 4 -37 0 -58 -18z m84 -13 c21 -26 25 -99 5 -118 -20 -21 -58 -22 -75 -2 -21 26 -25 99 -5 118 20 21 58 22 75 2z" />
    <path d="M5253 17147 c-23 -10 -39 -37 -23 -37 6 0 10 4 10 9 0 13 25 20 48 14 24 -6 37 -43 16 -43 -35 0 -59 -13 -79 -44 -29 -44 8 -78 59 -55 20 10 29 10 38 1 15 -15 48 -16 48 -2 0 6 -7 10 -15 10 -8 0 -14 3 -14 8 5 32 -3 111 -13 125 -16 22 -47 27 -75 14z m67 -101 c0 -17 -9 -27 -29 -36 -34 -13 -51 -7 -51 19 0 25 20 41 52 41 23 0 28 -4 28 -24z" />
    <path d="M5410 17148 c-22 -8 -23 -10 -7 -19 23 -13 25 -117 2 -125 -27 -11 -16 -20 25 -21 22 -1 40 2 40 8 0 5 -7 9 -15 9 -11 0 -15 13 -15 54 0 45 4 58 21 70 22 15 48 11 61 -8 4 -6 8 -36 8 -67 0 -55 1 -57 30 -61 17 -3 30 -1 30 4 0 4 -7 8 -15 8 -11 0 -15 12 -15 50 0 27 -5 60 -11 74 -14 29 -56 40 -86 20 -18 -11 -22 -11 -25 0 -2 10 -9 11 -28 4z" />
    <path d="M5749 17139 c-32 -32 -21 -61 31 -80 50 -19 62 -42 30 -59 -30 -16 -68 -5 -73 23 -3 16 -5 13 -6 -10 -1 -32 1 -33 37 -33 50 0 84 24 80 57 -3 27 -13 35 -63 50 -20 6 -30 15 -30 28 0 28 51 33 71 8 13 -17 13 -17 14 3 0 14 -8 24 -22 28 -37 9 -47 7 -69 -15z" />
    <path d="M6467 17144 c-49 -26 -57 -119 -13 -149 28 -20 90 -19 107 1 12 15 11 16 -11 9 -26 -9 -66 -9 -80 0 -4 3 -10 16 -12 29 -5 23 -2 25 54 31 63 8 72 20 43 62 -18 26 -56 33 -88 17z m54 -14 c10 -6 19 -20 19 -30 0 -17 -7 -20 -45 -20 -49 0 -59 15 -29 44 18 19 28 20 55 6z" />
    <path d="M6900 17145 c-17 -9 -27 -10 -31 -3 -4 7 -18 8 -35 3 -21 -6 -24 -9 -11 -12 9 -3 17 -14 18 -26 0 -12 1 -40 2 -61 2 -30 -2 -40 -15 -44 -33 -8 -18 -19 27 -19 25 0 45 4 45 8 0 5 -7 9 -15 9 -11 0 -15 13 -15 53 0 58 12 77 47 77 30 0 43 -28 43 -89 0 -28 4 -51 9 -51 5 0 16 -3 25 -6 9 -3 16 -1 16 5 0 6 -7 11 -15 11 -12 0 -15 14 -15 64 0 39 -5 67 -12 73 -24 19 -44 21 -68 8z" />
    <path d="M7279 17131 c-39 -39 -40 -91 -3 -128 22 -21 32 -25 66 -20 22 3 46 11 52 17 8 8 0 9 -30 4 -52 -8 -84 8 -84 41 0 23 4 25 48 25 62 0 76 9 63 43 -20 53 -69 60 -112 18z m82 -12 c14 -27 -2 -39 -48 -37 -23 1 -33 6 -33 18 0 41 61 55 81 19z" />
    <path d="M7506 17145 c-21 -11 -31 -12 -36 -4 -5 6 -17 8 -29 4 -20 -6 -21 -8 -6 -19 20 -15 18 -133 -2 -128 -7 1 -13 -2 -13 -7 0 -5 20 -9 45 -9 25 0 45 4 45 9 0 5 -9 9 -20 9 -17 0 -20 7 -20 49 0 54 17 77 50 68 16 -4 20 0 20 19 0 28 2 28 -34 9z" />
    <path d="M7595 17137 c-28 -23 -35 -68 -20 -117 12 -36 100 -55 124 -26 10 11 4 13 -32 9 -38 -5 -47 -2 -61 18 -28 41 -21 49 44 49 56 0 60 2 60 23 0 28 -9 41 -37 56 -32 16 -49 14 -78 -12z m73 -9 c7 -7 12 -20 12 -30 0 -16 -7 -19 -45 -17 -41 3 -45 5 -39 23 11 36 48 48 72 24z" />
    <path d="M7765 17152 c-27 -5 -44 -22 -22 -22 14 0 17 -10 17 -65 0 -37 -4 -65 -10 -65 -5 0 -10 -3 -10 -7 0 -5 18 -9 40 -10 22 0 40 3 40 8 0 5 -7 9 -15 9 -12 0 -15 13 -15 59 0 62 7 71 55 71 28 0 35 -16 35 -85 0 -48 2 -53 25 -57 14 -3 28 -1 31 3 3 5 -1 9 -9 9 -11 0 -17 18 -22 63 -4 34 -12 68 -17 75 -13 15 -74 16 -84 0 -5 -8 -9 -8 -13 3 -3 8 -15 13 -26 11z" />
    <path d="M8215 17150 c-21 -4 -25 -7 -14 -12 9 -3 26 -35 39 -70 37 -100 43 -102 79 -23 17 37 31 71 31 76 0 4 8 13 18 18 14 8 9 10 -22 11 -34 0 -37 -2 -24 -12 15 -12 15 -18 -5 -65 -12 -29 -25 -53 -29 -53 -4 0 -15 25 -25 56 -14 44 -15 57 -4 63 19 12 -7 19 -44 11z" />
    <path d="M8457 17144 c-32 -17 -47 -43 -47 -83 0 -43 9 -60 41 -76 40 -21 64 -19 96 9 73 63 -6 194 -90 150z m72 -30 c23 -29 26 -59 11 -98 -7 -20 -17 -26 -39 -26 -43 0 -61 23 -61 80 0 36 5 52 18 59 28 17 49 12 71 -15z" />
    <path d="M1820 17141 c-24 -7 -24 -8 -4 -14 17 -6 21 -16 22 -68 1 -53 -1 -61 -21 -69 -17 -7 -9 -9 33 -9 43 0 50 2 33 9 -20 8 -23 17 -23 58 0 55 17 78 50 67 16 -5 20 -2 20 14 0 25 -17 27 -48 5 -20 -14 -22 -14 -22 0 0 17 -2 18 -40 7z" />
    <path d="M2420 17140 c-15 -5 -18 -8 -8 -9 18 -1 26 -31 27 -94 0 -30 -4 -40 -22 -47 -17 -7 -9 -9 33 -9 47 0 52 2 32 11 -20 10 -23 17 -20 67 3 54 4 56 31 56 19 -1 27 4 27 17 0 21 -20 24 -39 6 -11 -10 -14 -10 -18 0 -5 13 -7 13 -43 2z" />
    <path d="M2759 17137 c-58 -45 -44 -136 25 -161 23 -8 86 11 86 26 0 6 -8 7 -17 3 -40 -16 -54 -17 -78 -1 -36 23 -33 56 4 56 48 0 91 12 91 25 0 7 -9 24 -21 39 -22 28 -62 34 -90 13z m65 -13 c30 -29 20 -44 -29 -44 -32 0 -45 4 -45 14 0 18 27 46 45 46 7 0 21 -7 29 -16z" />
    <path d="M5002 17141 c-11 -7 -11 -9 2 -14 24 -9 22 -115 -1 -133 -16 -12 -13 -13 27 -13 38 0 42 2 29 12 -22 17 -24 101 -3 122 19 19 63 20 70 1 7 -17 12 -62 13 -103 1 -28 5 -33 26 -33 14 0 25 5 25 10 0 6 -7 10 -15 10 -12 0 -15 13 -15 56 0 74 -12 94 -55 94 -18 0 -37 -4 -40 -10 -3 -5 -11 -10 -16 -10 -6 0 -7 5 -4 10 7 12 -25 13 -43 1z" />
    <path d="M6726 17141 c-4 -5 -2 -11 3 -13 4 -1 10 -29 13 -61 4 -43 1 -60 -9 -64 -26 -10 -12 -21 27 -21 22 0 40 3 40 9 0 5 -7 9 -15 9 -12 0 -15 15 -15 75 0 68 -2 75 -19 75 -11 0 -22 -4 -25 -9z" />
    <path d="M8617 17132 c13 -10 28 -42 39 -84 10 -38 22 -68 27 -68 4 0 19 25 33 55 14 30 29 55 32 55 4 0 16 -24 27 -52 12 -29 25 -53 29 -53 5 0 22 31 37 68 15 38 36 75 46 82 16 13 14 14 -26 15 -38 0 -42 -2 -28 -12 15 -12 15 -17 0 -60 -8 -27 -19 -48 -24 -48 -4 0 -18 27 -30 60 -12 33 -23 60 -25 60 -1 0 -15 -27 -30 -60 -15 -33 -30 -60 -33 -60 -4 0 -12 21 -19 46 -11 41 -11 48 5 60 16 12 12 13 -32 13 -49 1 -50 0 -28 -17z" />
    <path d="M8950 17132 c-33 -27 -39 -103 -11 -131 11 -11 31 -23 44 -26 26 -7 77 10 77 25 0 7 -6 8 -19 0 -29 -15 -56 -12 -74 8 -29 31 -22 52 17 52 19 0 46 4 61 10 22 8 24 13 15 29 -28 53 -70 65 -110 33z m80 -32 c0 -17 -7 -20 -40 -20 -34 0 -40 3 -40 20 0 25 37 42 63 28 9 -5 17 -18 17 -28z" />
    <path d="M10323 17135 c-25 -18 -30 -56 -10 -73 6 -6 28 -14 47 -19 41 -11 50 -37 20 -53 -27 -14 -70 -5 -70 15 0 8 -4 15 -10 15 -5 0 -10 -11 -10 -25 0 -23 3 -25 48 -25 54 0 82 20 82 58 0 23 -44 52 -80 52 -16 0 -21 5 -18 23 5 33 62 37 73 5 6 -20 8 -21 12 -4 9 36 -48 57 -84 31z" />
    <path d="M10603 17138 c-17 -8 -23 -20 -23 -44 0 -29 4 -34 43 -46 46 -16 59 -41 28 -57 -25 -14 -67 1 -74 26 -3 10 -5 5 -4 -12 2 -28 5 -30 43 -33 35 -3 45 1 63 24 27 34 14 59 -40 75 -32 10 -39 17 -37 33 4 31 51 34 66 4 l11 -23 0 26 c1 19 -5 28 -21 33 -28 7 -28 7 -55 -6z" />
    <path d="M10850 17138 c-21 -9 -22 -12 -7 -15 13 -4 17 -15 17 -53 0 -47 -8 -61 -42 -73 -31 -11 -48 19 -48 84 0 60 -8 70 -40 49 -13 -8 -12 -10 3 -10 14 0 17 -10 17 -58 0 -70 20 -97 64 -86 14 3 29 11 32 16 4 6 9 7 13 1 9 -14 61 -25 61 -13 0 5 -6 10 -14 10 -20 0 -24 16 -22 93 1 37 -1 67 -4 66 -3 0 -16 -5 -30 -11z" />
    <path d="M10950 17140 c-21 -6 -23 -8 -7 -15 15 -6 17 -22 17 -121 0 -97 -2 -114 -16 -114 -8 0 -13 -4 -10 -8 6 -10 73 -8 83 2 4 3 -1 6 -10 6 -13 0 -17 10 -17 45 0 44 1 45 31 45 17 0 39 5 50 10 23 13 49 61 49 93 0 47 -68 83 -110 57 -8 -5 -19 -5 -25 -1 -5 4 -21 5 -35 1z m137 -41 c10 -20 10 -34 2 -58 -13 -38 -43 -52 -80 -39 -24 8 -26 13 -23 56 4 53 24 75 64 70 15 -2 30 -13 37 -29z" />
    <path d="M11170 17140 c-21 -6 -23 -8 -7 -15 15 -6 17 -22 17 -121 0 -102 -2 -114 -17 -115 -10 -1 -1 -6 20 -11 40 -11 63 -3 36 12 -9 5 -16 25 -17 48 -3 39 -2 40 31 40 46 0 80 24 95 66 16 44 3 79 -38 96 -24 10 -37 10 -57 1 -14 -7 -29 -8 -32 -3 -3 4 -17 5 -31 2z m107 -16 c16 -4 24 -16 29 -39 9 -47 -2 -72 -37 -84 -46 -16 -65 -1 -67 53 -2 36 2 48 20 60 25 18 25 18 55 10z" />
    <path d="M11393 17142 c-24 -4 -32 -22 -10 -22 9 0 14 -18 15 -60 1 -47 -3 -62 -16 -69 -13 -8 -5 -10 33 -10 41 0 46 2 27 10 -21 8 -23 14 -20 60 2 37 8 55 21 63 14 8 20 8 27 -4 8 -12 10 -9 10 13 0 31 -7 33 -37 12 -16 -12 -22 -12 -25 -3 -2 7 -13 12 -25 10z" />
    <path d="M11545 17125 c-36 -35 -35 -105 1 -134 31 -24 72 -27 100 -7 17 13 15 14 -30 13 -44 -2 -51 1 -62 22 -18 35 -10 41 52 41 49 0 54 2 54 23 0 28 -9 41 -37 56 -33 17 -51 14 -78 -14z m83 -22 c4 -25 -23 -37 -61 -27 -26 6 -27 29 -3 47 22 15 61 3 64 -20z" />
    <path d="M11709 17129 c-35 -35 -25 -49 61 -89 8 -4 15 -16 15 -26 0 -15 -8 -20 -38 -22 -31 -3 -39 1 -47 20 -9 21 -10 21 -7 -7 2 -26 6 -30 35 -33 50 -5 84 21 80 61 -3 27 -8 33 -40 42 -51 14 -64 28 -43 49 21 21 31 20 55 -4 19 -19 20 -19 20 -1 0 35 -59 42 -91 10z" />
    <path d="M11867 17137 c-13 -9 -18 -23 -15 -42 2 -25 9 -31 43 -41 33 -9 40 -15 40 -35 0 -21 -5 -24 -37 -27 -33 -3 -38 0 -38 17 0 12 -4 21 -10 21 -5 0 -10 -11 -10 -25 0 -50 107 -40 127 12 10 25 -11 47 -53 59 -27 7 -40 17 -42 31 -5 36 61 40 72 4 2 -9 4 -5 3 9 -2 20 -8 26 -32 28 -16 2 -38 -3 -48 -11z" />
    <path d="M12044 17138 c-48 -23 -59 -104 -19 -143 28 -29 80 -33 111 -10 17 13 15 14 -27 9 -50 -7 -79 10 -79 47 0 17 7 19 60 19 33 0 60 3 60 8 -1 28 -17 55 -41 67 -32 17 -36 17 -65 3z m65 -30 c7 -18 5 -25 -9 -32 -24 -11 -70 0 -70 17 0 39 65 51 79 15z" />
    <path d="M12704 17139 c-2 -4 2 -9 9 -12 7 -2 27 -39 46 -81 l33 -76 -19 -32 c-11 -19 -27 -33 -38 -33 -10 0 -20 -6 -23 -13 -3 -10 4 -13 23 -10 31 4 39 17 94 148 22 52 45 96 50 98 23 8 10 22 -19 22 -29 0 -41 -15 -18 -22 7 -3 3 -22 -14 -59 l-26 -54 -21 45 c-25 54 -26 70 -6 70 8 0 15 4 15 9 0 11 -79 11 -86 0z" />
    <path d="M13400 17133 c-35 -24 -40 -33 -40 -78 0 -22 4 -45 8 -51 22 -34 95 -44 128 -19 18 14 16 15 -22 9 -52 -8 -84 8 -84 42 0 22 4 25 28 24 70 -5 92 0 92 19 0 50 -68 84 -110 54z m70 -23 c16 -29 4 -40 -41 -40 -35 0 -39 3 -39 24 0 39 61 51 80 16z" />
    <path d="M10200 17130 c-17 -5 -19 -8 -7 -9 14 -1 17 -11 17 -64 0 -36 -5 -68 -12 -75 -9 -9 -3 -12 30 -12 23 0 42 5 42 10 0 6 -7 10 -15 10 -12 0 -15 15 -15 75 0 41 -3 75 -7 74 -5 -1 -19 -5 -33 -9z" />
    <path d="M9320 17070 c0 -16 77 -16 95 1 5 5 -11 9 -43 9 -29 0 -52 -4 -52 -10z" />
    <path d="M5923 17023 c-7 -3 -13 -11 -13 -19 0 -8 -7 -28 -15 -44 -24 -47 -3 -35 27 15 26 43 26 57 1 48z" />
    <path d="M8224 17015 c-7 -18 2 -45 14 -45 5 0 9 7 9 15 0 8 -4 15 -8 15 -5 0 -6 7 -3 15 4 8 3 15 0 15 -4 0 -9 -7 -12 -15z" />
    <path d="M1095 17009 c-10 -15 1 -23 20 -15 9 3 13 10 10 16 -8 13 -22 13 -30 -1z" />
    <path d="M1100 16690 c-25 -8 -25 -8 -3 -15 17 -6 21 -14 20 -41 -2 -32 -4 -34 -37 -34 -65 0 -106 -49 -93 -111 9 -45 45 -66 88 -50 25 9 39 9 59 0 30 -14 50 -3 23 12 -15 9 -17 26 -17 129 0 66 -3 120 -7 119 -5 -1 -19 -5 -33 -9z m12 -124 c12 -18 9 -71 -4 -89 -7 -9 -25 -19 -39 -22 -21 -5 -30 -1 -43 16 -23 34 -21 85 6 103 23 16 67 12 80 -8z" />
    <path d="M1320 16691 c-21 -6 -22 -8 -7 -14 12 -4 17 -17 17 -42 0 -34 -1 -35 -38 -35 -92 0 -125 -125 -43 -160 26 -10 35 -10 56 4 14 9 25 12 25 6 0 -5 15 -9 33 -9 17 1 24 3 15 6 -16 4 -18 19 -18 129 0 68 -3 124 -7 123 -5 -1 -19 -4 -33 -8z m-16 -111 c23 -8 26 -15 26 -56 0 -47 -17 -73 -49 -74 -49 -1 -71 95 -29 124 27 19 21 18 52 6z" />
    <path d="M2543 16685 c-13 -9 -25 -32 -29 -53 -4 -20 -12 -41 -18 -45 -8 -6 -7 -10 2 -14 19 -7 17 -123 -3 -123 -8 0 -15 -4 -15 -10 0 -5 18 -10 40 -10 22 0 40 5 40 10 0 6 -7 10 -15 10 -13 0 -15 11 -13 63 3 58 5 62 26 61 13 -1 21 3 19 10 -2 6 -14 10 -26 8 -20 -3 -22 0 -19 35 3 33 7 38 30 41 19 2 25 8 21 18 -7 18 -13 18 -40 -1z" />
    <path d="M3610 16690 c-15 -5 -18 -8 -9 -9 25 -1 29 -20 28 -131 0 -82 -3 -100 -15 -100 -8 0 -13 -4 -10 -8 3 -4 22 -6 43 -3 21 3 30 6 21 9 -16 3 -18 18 -18 128 0 68 -3 124 -7 123 -5 -1 -19 -5 -33 -9z" />
    <path d="M4490 16668 c-11 -18 -20 -43 -20 -55 0 -12 -6 -24 -12 -26 -10 -4 -10 -6 0 -6 8 -1 12 -21 12 -66 0 -52 -3 -65 -16 -65 -8 0 -13 -4 -10 -8 2 -4 24 -6 48 -3 24 3 35 6 26 9 -15 3 -18 15 -18 68 0 62 1 64 26 64 14 0 23 4 19 10 -3 6 -15 10 -26 10 -17 0 -20 6 -17 38 3 31 7 37 26 36 12 0 22 5 22 13 0 26 -40 13 -60 -19z" />
    <path d="M4780 16690 c-21 -5 -22 -7 -7 -13 15 -5 17 -21 17 -117 0 -91 -3 -110 -15 -110 -8 0 -15 -4 -15 -9 0 -12 78 -12 85 0 4 5 -1 9 -9 9 -12 0 -16 11 -17 48 -2 116 -5 192 -10 195 -2 2 -15 1 -29 -3z" />
    <path d="M4880 16690 c-17 -5 -19 -8 -7 -9 15 -1 17 -14 17 -116 0 -101 -2 -115 -17 -115 -9 0 -14 -3 -10 -6 9 -9 87 -10 87 -1 0 4 -7 7 -15 7 -13 0 -15 21 -15 125 0 69 -3 125 -7 124 -5 -1 -19 -5 -33 -9z" />
    <path d="M3048 16668 c-8 -13 -18 -34 -23 -47 -12 -40 14 -20 35 27 20 45 12 57 -12 20z" />
    <path d="M3112 16649 c-13 -22 -22 -43 -19 -45 10 -10 35 9 40 29 2 12 8 30 12 40 14 34 -10 16 -33 -24z" />
    <path d="M3740 16664 c-6 -14 -15 -35 -21 -46 -22 -40 12 -14 38 30 21 35 22 42 9 42 -9 0 -21 -12 -26 -26z" />
    <path d="M3814 16663 c-4 -16 -11 -34 -17 -41 -5 -7 -7 -15 -4 -18 5 -6 57 65 57 78 0 21 -30 4 -36 -19z" />
    <path d="M1450 16666 c0 -9 7 -16 16 -16 9 0 14 5 12 12 -6 18 -28 21 -28 4z" />
    <path d="M1680 16665 c0 -8 7 -15 15 -15 8 0 15 7 15 15 0 8 -7 15 -15 15 -8 0 -15 -7 -15 -15z" />
    <path d="M3520 16665 c0 -8 7 -15 15 -15 8 0 15 7 15 15 0 8 -7 15 -15 15 -8 0 -15 -7 -15 -15z" />
    <path d="M1563 16653 c-7 -3 -13 -20 -13 -38 0 -24 -5 -35 -17 -38 -17 -4 -17 -5 0 -6 14 -1 17 -11 17 -59 0 -32 5 -63 12 -70 16 -16 43 -15 58 3 11 13 9 15 -11 13 -23 -3 -24 1 -27 55 -3 55 -2 57 23 57 14 0 25 5 25 10 0 6 -11 10 -24 10 -21 0 -25 6 -28 33 -2 22 -7 32 -15 30z" />
    <path d="M3220 16620 c0 -17 -7 -33 -17 -39 -17 -10 -17 -10 0 -11 14 0 17 -10 17 -64 0 -36 5 -68 11 -71 13 -9 59 3 59 14 0 5 -9 7 -20 4 -22 -6 -22 -8 -25 65 -3 49 -2 52 21 52 30 0 32 18 2 22 -18 2 -23 9 -22 31 1 17 -4 27 -12 27 -9 0 -14 -11 -14 -30z" />
    <path d="M838 16599 c-10 -5 -18 -18 -18 -27 1 -16 1 -16 11 1 12 20 40 22 57 5 20 -20 13 -35 -20 -42 -43 -8 -58 -23 -58 -58 0 -35 22 -46 61 -31 16 7 29 7 29 2 0 -5 15 -8 33 -8 17 1 25 3 16 6 -13 3 -18 20 -21 70 -3 49 -9 69 -23 79 -22 16 -43 17 -67 3z m62 -98 c0 -29 -14 -41 -51 -41 -27 0 -25 35 3 54 34 24 48 20 48 -13z" />
    <path d="M1787 16585 c-22 -21 -27 -35 -27 -70 0 -56 28 -85 80 -85 88 0 120 114 45 160 -43 26 -65 25 -98 -5z m98 -25 c8 -16 15 -40 15 -55 0 -30 -32 -65 -60 -65 -42 0 -71 97 -40 134 7 9 25 16 41 16 21 0 32 -7 44 -30z" />
    <path d="M2030 16593 c-16 -12 -24 -13 -29 -4 -5 8 -15 9 -31 3 -19 -7 -21 -10 -7 -15 24 -9 24 -115 0 -132 -14 -11 -11 -13 25 -13 42 -1 56 11 27 22 -20 7 -18 92 2 112 19 19 59 18 67 -2 3 -9 6 -40 6 -69 0 -45 3 -55 20 -60 26 -8 51 6 25 15 -15 5 -19 18 -21 64 -1 31 -7 63 -13 70 -18 22 -48 25 -71 9z" />
    <path d="M2343 16599 c-42 -15 -66 -78 -49 -127 7 -22 52 -52 79 -52 27 0 66 41 73 75 12 65 -48 125 -103 104z m59 -26 c12 -11 18 -30 18 -63 0 -53 -13 -70 -52 -70 -33 0 -50 27 -51 83 -1 59 45 87 85 50z" />
    <path d="M4028 16596 c-10 -7 -18 -19 -18 -26 0 -9 6 -8 20 5 25 23 70 13 70 -15 0 -14 -7 -20 -24 -20 -37 0 -78 -38 -74 -69 2 -20 9 -27 30 -29 15 -2 36 2 47 7 13 7 22 8 26 1 3 -5 18 -9 33 -9 17 1 21 3 10 6 -15 4 -18 16 -18 64 0 46 -4 63 -20 79 -23 23 -57 25 -82 6z m77 -85 c-2 -28 -24 -51 -50 -51 -41 0 -37 48 5 63 31 11 47 7 45 -12z" />
    <path d="M4206 16597 c-12 -9 -17 -23 -14 -42 2 -25 10 -32 46 -45 47 -16 56 -42 22 -60 -28 -15 -60 -3 -60 21 0 10 -5 19 -11 19 -6 0 -9 -12 -7 -27 2 -21 9 -29 27 -31 37 -6 70 6 86 32 21 32 10 53 -38 69 -30 10 -43 20 -45 35 -3 18 1 22 27 22 18 0 34 -7 40 -17 9 -16 10 -16 11 3 0 14 -8 24 -22 28 -33 8 -42 7 -62 -7z" />
    <path d="M4612 16600 c-35 -14 -56 -73 -42 -116 13 -37 35 -54 74 -54 38 0 55 10 71 41 23 43 18 77 -14 110 -31 30 -50 34 -89 19z m72 -32 c17 -23 21 -84 8 -105 -9 -15 -54 -25 -68 -16 -34 24 -45 100 -18 127 22 23 60 20 78 -6z" />
    <path d="M5006 16585 c-78 -84 24 -208 107 -131 21 19 27 34 27 66 0 78 -84 119 -134 65z m83 -4 c16 -10 26 -100 14 -118 -15 -21 -59 -26 -76 -8 -22 21 -31 74 -18 108 8 20 17 27 38 27 16 0 34 -4 42 -9z" />
    <path d="M5203 16603 c-41 -4 -41 -5 -23 -23 10 -10 26 -46 36 -80 9 -33 20 -63 25 -65 4 -3 20 22 35 55 15 34 30 57 34 53 3 -4 15 -28 25 -53 10 -25 22 -49 26 -53 3 -5 19 24 35 65 15 40 34 79 43 86 17 14 16 14 -21 16 -28 2 -37 -7 -19 -19 10 -6 -15 -91 -29 -100 -4 -3 -18 24 -31 60 l-23 65 -32 -67 -31 -68 -12 30 c-23 56 -25 85 -7 85 9 0 16 5 16 10 0 6 -1 9 -2 8 -2 -1 -22 -3 -45 -5z" />
    <path d="M5496 16597 c-12 -9 -17 -23 -14 -42 2 -24 9 -31 40 -40 46 -13 61 -27 52 -48 -4 -12 -18 -17 -45 -17 -32 0 -39 3 -39 20 0 11 -4 20 -10 20 -16 0 -11 -47 6 -54 54 -21 114 8 114 54 0 26 -5 30 -47 42 -37 10 -49 19 -51 36 -3 19 1 22 31 22 25 0 37 -6 45 -22 11 -23 11 -23 11 3 1 39 -55 54 -93 26z" />
    <path d="M1435 16590 c-17 -7 -17 -9 -2 -9 14 -1 17 -11 17 -66 0 -50 -4 -66 -17 -74 -14 -8 -7 -10 32 -10 44 0 48 1 33 13 -14 10 -18 28 -18 85 0 74 -3 79 -45 61z" />
    <path d="M1662 16591 c-11 -7 -11 -9 2 -14 24 -9 22 -115 -1 -133 -16 -11 -13 -13 25 -12 39 0 57 11 32 20 -6 2 -11 35 -12 76 -1 74 -10 86 -46 63z" />
    <path d="M2738 16589 c-10 -5 -18 -18 -18 -27 1 -16 2 -16 14 1 18 23 63 22 76 -3 9 -17 6 -20 -26 -26 -61 -11 -94 -65 -58 -95 13 -10 22 -10 52 1 26 9 37 10 40 1 2 -6 16 -11 30 -11 24 1 25 2 11 13 -11 8 -18 33 -21 75 -3 40 -10 67 -19 73 -19 12 -60 11 -81 -2z m79 -86 c7 -19 -29 -53 -58 -53 -13 0 -19 7 -19 25 0 39 64 63 77 28z" />
    <path d="M3343 16593 c-7 -2 -13 -11 -13 -20 0 -12 2 -12 16 2 17 16 53 12 66 -9 13 -19 10 -21 -35 -33 -50 -14 -75 -50 -57 -84 13 -23 20 -23 65 -5 18 8 35 11 37 7 5 -14 48 -24 48 -12 0 6 -7 11 -15 11 -12 0 -15 13 -15 56 0 73 -12 94 -53 93 -18 0 -38 -3 -44 -6z m77 -92 c0 -35 -65 -65 -77 -35 -8 22 8 47 38 55 30 7 39 3 39 -20z" />
    <path d="M3496 16591 c-3 -5 3 -11 14 -14 17 -4 20 -14 20 -66 0 -48 -3 -61 -15 -61 -8 0 -15 -4 -15 -9 0 -4 17 -6 37 -4 39 4 59 13 30 13 -14 0 -17 12 -17 75 0 73 -1 75 -24 75 -14 0 -27 -4 -30 -9z" />
    <path d="M5650 16455 c0 -8 7 -15 15 -15 8 0 15 7 15 15 0 8 -7 15 -15 15 -8 0 -15 -7 -15 -15z" />
    <path d="M12105 16160 c-3 -5 -19 -10 -34 -10 -61 0 -113 -83 -61 -97 11 -3 20 -9 20 -14 0 -5 5 -9 10 -9 6 0 10 7 10 16 0 8 4 13 9 10 5 -3 20 3 34 14 14 11 28 20 31 20 3 0 6 -56 6 -124 0 -78 4 -127 11 -131 6 -4 12 -5 15 -2 15 14 25 277 11 277 -6 0 -8 3 -4 6 6 6 -3 17 -35 42 -11 9 -18 10 -23 2z m23 -49 c3 -8 0 -11 -7 -7 -6 4 -14 0 -17 -8 -4 -11 -19 -16 -45 -16 -32 0 -39 4 -39 19 0 24 14 30 64 28 23 -1 41 -8 44 -16z" />
    <path d="M12285 15799 c-75 -7 -151 -26 -200 -51 -16 -8 -54 -23 -82 -32 -29 -10 -53 -22 -53 -27 0 -5 -6 -9 -14 -9 -18 0 -80 -63 -113 -116 -57 -89 -78 -178 -82 -349 -1 -60 -7 -114 -12 -119 -6 -6 -9 -4 -9 5 0 9 -7 16 -15 16 -11 0 -15 -11 -15 -39 0 -54 25 -97 66 -114 36 -15 74 -11 74 7 0 6 17 27 39 47 21 20 44 48 51 62 9 17 -2 10 -35 -22 -27 -27 -55 -48 -64 -48 -23 0 -50 88 -46 152 2 29 5 100 7 158 3 90 8 113 33 165 15 33 39 71 52 84 12 13 23 29 23 35 0 6 24 27 53 46 28 19 54 37 57 40 3 3 57 23 122 43 104 34 128 38 235 40 l118 2 75 -38 c41 -21 94 -52 117 -70 46 -35 123 -129 123 -149 0 -7 9 -28 21 -47 26 -43 47 -144 50 -238 1 -40 6 -73 11 -73 10 0 10 7 10 126 0 80 -4 101 -33 170 -18 43 -44 97 -57 118 -32 51 -92 116 -107 116 -7 0 -20 9 -29 19 -10 11 -32 25 -49 32 -18 7 -49 24 -71 37 -42 26 -121 33 -251 21z" />
    <path d="M12300 15507 c-114 -26 -229 -118 -284 -227 -32 -62 -37 -87 -37 -195 0 -81 3 -100 26 -147 15 -29 37 -61 49 -70 26 -22 69 -23 86 -3 11 13 9 20 -13 43 -30 31 -67 121 -67 160 0 15 9 46 19 68 34 74 124 122 246 131 101 8 144 -7 198 -67 84 -93 127 -252 124 -450 -2 -86 -6 -113 -24 -150 -23 -46 -31 -56 -159 -193 l-73 -79 -46 36 c-60 45 -228 128 -328 161 -105 35 -217 39 -328 14 -162 -38 -221 -69 -327 -178 l-63 -64 -50 56 c-116 130 -254 187 -454 187 -99 0 -169 -12 -232 -41 -67 -30 -98 -53 -186 -139 l-78 -75 -32 35 c-45 48 -124 111 -172 137 -190 102 -504 127 -680 54 -392 -163 -626 -433 -690 -795 -38 -218 7 -547 103 -744 83 -171 291 -291 485 -280 101 6 152 29 236 104 87 79 135 178 139 292 5 102 -10 190 -47 281 -35 86 -76 142 -143 198 -61 50 -118 72 -208 79 -154 13 -286 -43 -376 -161 -14 -19 -30 -35 -35 -35 -5 0 -9 52 -9 115 0 173 36 287 137 437 105 155 247 258 419 303 101 26 252 20 390 -16 66 -17 145 -45 177 -62 79 -42 151 -111 178 -172 22 -49 22 -53 23 -665 l1 -615 23 -42 c35 -66 96 -71 130 -10 15 29 17 77 19 502 5 832 3 789 40 866 81 166 229 251 409 236 135 -12 231 -62 312 -164 89 -110 86 -82 87 -778 1 -540 3 -614 18 -641 23 -44 41 -56 79 -52 27 2 36 10 52 41 22 47 23 66 25 747 l2 525 27 63 c34 80 102 149 196 199 178 95 272 116 401 90 95 -20 270 -103 270 -129 0 -9 -43 -62 -96 -119 -53 -57 -111 -120 -129 -139 -137 -149 -169 -251 -171 -557 -3 -437 79 -684 241 -723 57 -14 171 0 222 26 60 31 148 138 148 180 0 11 18 45 41 75 119 159 182 385 174 629 -6 210 -48 363 -139 513 l-47 77 32 28 c48 40 63 51 71 52 15 0 87 -80 131 -147 62 -93 87 -151 93 -216 3 -28 9 -70 15 -92 5 -22 11 -51 13 -65 2 -14 9 -47 16 -75 21 -90 16 -287 -9 -420 -24 -126 -68 -275 -80 -275 -4 0 -13 -16 -20 -35 -16 -46 -51 -50 -48 -5 1 16 5 30 8 30 3 0 5 12 4 28 -1 15 -3 37 -3 50 -1 12 -6 22 -12 22 -5 0 -6 -7 -3 -17 4 -10 2 -14 -5 -9 -6 3 -13 2 -17 -4 -3 -5 -1 -10 4 -10 6 0 11 -5 11 -11 0 -6 -7 -9 -15 -5 -9 3 -15 0 -15 -10 0 -8 4 -13 9 -10 5 4 7 -27 4 -74 l-6 -81 44 17 c24 10 55 24 69 33 39 24 95 80 87 87 -3 4 -23 -10 -44 -30 -21 -20 -41 -36 -45 -36 -13 0 -9 18 6 27 24 14 53 85 75 188 13 55 29 127 38 160 20 80 13 360 -11 455 -10 36 -22 94 -28 130 -21 130 -34 160 -135 317 -34 53 -89 103 -113 103 -7 0 20 30 60 68 147 136 209 203 212 227 0 6 8 15 18 22 9 7 23 26 30 43 8 19 19 29 29 28 13 -3 16 7 17 52 0 30 3 64 7 75 3 11 0 34 -8 50 -7 17 -14 24 -14 17 -1 -7 -17 -20 -36 -28 -20 -8 -39 -22 -42 -32 -4 -9 -14 -23 -24 -29 -21 -16 -59 -79 -52 -87 12 -11 33 -6 33 8 0 8 7 16 15 20 8 3 19 16 24 29 5 14 19 27 30 30 18 4 21 0 22 -31 1 -21 0 -41 -1 -47 -3 -14 -8 -39 -9 -45 -1 -3 -6 2 -12 10 -9 13 -10 12 -5 -2 3 -12 -15 -41 -57 -90 -34 -40 -65 -75 -70 -76 -4 -2 -5 -8 -1 -13 3 -5 0 -9 -6 -9 -6 0 -28 -18 -49 -40 -20 -22 -40 -40 -44 -40 -3 0 -41 -33 -84 -74 -43 -41 -89 -85 -102 -97 l-23 -22 -24 29 c-13 16 -23 31 -24 34 0 3 34 41 76 85 79 83 137 162 170 230 17 36 19 59 16 230 -5 383 -70 583 -217 670 -55 32 -127 40 -205 22z m93 -1368 c8 -13 3 -26 -21 -57 -18 -22 -32 -45 -32 -51 0 -6 -4 -11 -8 -11 -5 0 -9 -6 -9 -12 0 -7 -23 -60 -50 -118 -62 -129 -96 -236 -123 -380 -4 -25 -20 -74 -35 -110 -16 -36 -29 -81 -31 -100 -2 -19 -6 -54 -9 -78 -4 -34 -1 -46 15 -59 11 -10 20 -23 20 -30 0 -7 7 -13 15 -13 19 0 19 10 1 35 -10 14 -13 43 -11 95 4 86 5 89 33 151 12 25 29 83 38 130 18 95 73 272 85 277 5 2 9 8 9 14 0 6 14 40 31 77 17 36 40 86 52 111 11 25 30 55 43 68 l22 23 29 -38 c135 -172 210 -429 184 -625 -21 -159 -89 -304 -197 -425 -46 -52 -61 -63 -87 -63 -18 0 -45 -7 -62 -16 -115 -59 -230 -2 -274 136 -31 97 -39 168 -40 350 -2 189 16 282 70 379 37 65 51 83 170 211 48 52 97 108 109 123 24 30 47 32 63 6z m-3001 -669 c70 -27 148 -103 186 -180 36 -74 39 -203 5 -265 -47 -88 -180 -177 -279 -188 -52 -5 -173 26 -230 59 -128 75 -198 210 -173 333 25 125 107 212 244 258 56 18 176 10 247 -17z" />
    <path d="M9185 13423 c-10 -3 -29 -12 -42 -20 -12 -8 -26 -12 -31 -9 -16 10 -110 -91 -115 -124 -2 -10 -11 -28 -20 -38 -18 -19 -14 -32 10 -32 8 0 13 7 11 16 -4 20 35 50 88 69 21 8 31 14 22 15 -9 0 -29 -5 -44 -10 -36 -14 -41 -7 -12 22 13 13 22 28 20 33 -2 6 0 7 4 3 4 -4 19 1 33 10 33 23 99 42 142 41 28 0 31 -2 14 -9 -23 -10 -14 -13 32 -10 107 5 213 -144 201 -286 -5 -53 -8 -61 -47 -94 -29 -26 -66 -43 -119 -59 -85 -24 -101 -22 -161 23 -19 14 -40 26 -47 26 -7 0 -16 5 -20 11 -4 8 1 9 16 4 27 -8 90 23 90 44 0 12 -3 12 -12 3 -16 -16 -68 -16 -68 1 0 7 -9 18 -20 25 -11 7 -20 19 -20 27 0 12 -7 14 -27 9 -38 -9 -38 -9 -38 -62 0 -61 11 -88 28 -74 9 8 19 7 34 -1 11 -7 36 -20 54 -31 19 -10 42 -25 51 -34 41 -35 228 14 299 80 36 33 59 160 37 204 -9 16 -18 42 -22 58 -10 40 -82 125 -112 132 -13 3 -24 9 -24 14 0 21 -129 37 -185 23z m-125 -368 c0 -14 -4 -25 -10 -25 -5 0 -10 4 -10 9 0 5 -3 16 -6 25 -4 11 -1 16 10 16 10 0 16 -9 16 -25z" />
    <path d="M9148 13303 c12 -2 32 -2 45 0 12 2 2 4 -23 4 -25 0 -35 -2 -22 -4z" />
    <path d="M9249 13205 c-1 -25 -2 -51 -3 -57 -3 -20 15 -68 25 -68 5 0 9 34 9 75 0 46 -4 75 -11 75 -5 0 -7 5 -4 10 3 6 1 10 -4 10 -6 0 -12 -20 -12 -45z" />
    <path d="M9505 14779 c-153 -23 -340 -76 -440 -125 -92 -44 -186 -122 -214 -177 -8 -15 -20 -27 -28 -27 -7 0 -13 -4 -13 -9 0 -14 -57 -81 -64 -74 -3 3 -6 -1 -6 -11 0 -9 -4 -14 -10 -11 -5 3 -12 -6 -16 -20 -3 -14 -12 -29 -19 -33 -18 -10 -117 -157 -149 -221 -26 -51 -77 -224 -96 -326 -5 -27 -18 -74 -28 -103 -20 -55 -23 -107 -8 -107 9 0 22 42 52 174 8 35 24 96 34 135 11 39 20 80 20 92 0 11 11 43 25 70 14 27 25 54 25 59 0 6 25 48 55 94 30 46 55 85 55 87 0 1 12 16 28 32 27 29 71 81 134 157 59 72 122 131 180 168 54 36 191 87 231 87 10 0 30 6 45 13 95 48 370 71 406 35 10 -10 25 -18 34 -18 28 0 180 -56 208 -76 69 -49 124 -67 124 -41 0 7 -9 23 -20 35 -14 14 -16 23 -8 28 6 4 16 0 23 -9 7 -10 20 -17 29 -17 9 0 19 -7 23 -16 9 -25 -38 -65 -86 -71 -47 -6 -47 -14 0 -19 54 -7 129 49 129 96 0 5 -12 16 -27 24 -16 8 -50 35 -78 60 -27 25 -53 46 -57 46 -14 0 -20 -22 -9 -33 6 -6 11 -21 11 -33 0 -13 5 -26 10 -29 12 -7 13 -25 3 -25 -5 0 -21 11 -37 25 -17 14 -41 28 -55 32 -14 3 -30 9 -36 13 -5 5 -50 22 -100 40 -96 34 -186 43 -280 29z" />
    <path d="M8631 14735 c-14 -8 -26 -20 -27 -29 -2 -13 5 -12 46 4 71 28 124 8 96 -36 -8 -11 -37 -45 -65 -75 -28 -30 -51 -57 -51 -61 0 -5 17 -8 37 -8 49 0 193 31 193 42 0 10 -19 10 -104 -2 -38 -6 -71 -8 -73 -6 -3 2 18 29 46 60 51 56 63 90 39 114 -16 16 -106 14 -137 -3z" />
    <path d="M13024 14633 c-11 -27 -14 -165 -3 -185 12 -23 59 -24 100 -2 44 22 37 61 -16 88 -50 25 -53 28 -38 33 6 2 26 17 44 32 37 33 33 56 -8 40 -18 -7 -30 -6 -37 1 -15 15 -33 12 -42 -7z m53 -20 c6 -18 -37 -37 -50 -24 -8 8 -5 15 9 26 21 16 36 15 41 -2z m10 -95 c52 -23 49 -47 -7 -66 -32 -12 -40 -2 -40 49 0 32 6 35 47 17z" />
    <path d="M2025 14559 c-84 -9 -206 -44 -278 -80 -155 -78 -343 -224 -416 -323 -55 -74 -127 -205 -151 -273 -69 -200 -65 -500 10 -773 57 -207 172 -330 367 -396 202 -68 410 15 497 199 42 89 49 122 48 217 -3 192 -73 352 -197 445 -70 52 -135 75 -217 75 -141 0 -273 -57 -353 -153 -21 -25 -42 -44 -47 -41 -4 3 -6 65 -4 137 7 182 37 272 140 412 70 96 63 88 146 159 45 37 110 80 161 104 114 54 245 70 403 47 217 -30 374 -114 441 -236 l30 -54 5 -630 c5 -577 6 -633 23 -662 33 -62 94 -67 125 -9 15 28 17 91 22 666 l5 635 37 76 c43 88 98 144 186 188 122 62 260 58 407 -12 86 -41 145 -100 188 -187 l32 -65 5 -630 5 -630 23 -38 c25 -39 64 -57 91 -40 9 5 24 26 35 47 18 36 19 73 21 650 1 336 5 620 9 631 19 51 58 123 80 146 64 69 165 132 286 180 101 39 268 31 375 -18 155 -71 329 -241 405 -396 27 -54 71 -181 84 -238 36 -165 2 -379 -86 -538 -66 -118 -202 -263 -326 -345 -41 -27 -76 -55 -79 -64 -22 -56 103 -76 147 -24 8 10 36 34 61 54 159 127 276 299 329 488 32 116 35 143 34 320 -1 144 -4 179 -28 274 -73 291 -237 482 -536 624 -131 62 -216 82 -329 78 -197 -7 -351 -77 -471 -214 l-39 -44 -73 75 c-110 111 -218 155 -418 172 -162 14 -319 -47 -447 -172 l-76 -74 -40 38 c-67 63 -70 65 -125 100 -140 90 -356 140 -527 122z m-213 -1092 c163 -80 245 -236 205 -389 -16 -62 -21 -70 -87 -138 -56 -56 -162 -100 -244 -100 -61 0 -162 30 -215 65 -127 82 -184 216 -151 354 45 187 308 298 492 208z" />
    <path d="M11640 14247 c-34 -17 -32 -42 3 -42 15 1 27 -1 27 -4 0 -2 -13 -18 -30 -35 -82 -86 -110 -143 -110 -226 0 -29 -16 -91 -41 -165 -39 -111 -47 -205 -36 -420 4 -71 10 -184 13 -249 7 -131 26 -247 38 -227 4 6 5 38 2 69 -5 48 -12 177 -30 522 -5 89 10 188 42 295 17 55 33 125 36 155 14 121 15 124 77 193 33 37 67 67 74 67 8 0 19 9 25 21 9 16 14 18 25 9 16 -13 11 -32 -19 -75 l-21 -30 25 16 c59 39 74 96 32 118 -32 16 -107 20 -132 8z" />
    <path d="M10688 14200 c-35 -9 -34 -36 2 -49 l32 -11 -35 -32 c-34 -33 -107 -172 -107 -206 0 -10 -4 -22 -9 -27 -18 -20 -62 -173 -82 -284 -11 -64 -25 -132 -31 -151 -19 -60 -9 -495 13 -543 14 -30 24 -34 33 -12 3 9 -1 15 -11 15 -12 0 -13 3 -4 14 6 7 9 20 7 27 -14 43 -24 448 -12 468 3 4 10 41 17 82 18 119 58 278 90 357 16 40 29 82 29 92 0 10 6 25 14 32 7 8 17 25 21 38 13 41 56 90 93 106 57 23 64 19 39 -23 -12 -21 -25 -39 -29 -41 -13 -6 -9 -22 5 -22 6 0 27 22 45 49 28 40 33 55 27 80 -4 17 -12 34 -18 38 -14 9 -96 10 -129 3z m112 -30 c0 -5 -13 -10 -29 -10 -17 0 -33 5 -36 10 -4 6 8 10 29 10 20 0 36 -4 36 -10z" />
    <path d="M9973 13992 c0 -26 2 -27 17 -13 12 13 13 19 4 29 -18 18 -21 15 -21 -16z" />
    <path d="M9990 13974 c0 -3 4 -13 9 -22 14 -27 40 -276 43 -412 4 -228 -22 -580 -43 -580 -5 0 -9 9 -9 19 0 24 -11 32 -28 22 -9 -6 -9 -18 2 -57 8 -27 16 -62 18 -79 2 -24 8 -31 28 -33 45 -5 151 119 150 175 -1 10 -12 -6 -26 -34 -14 -29 -29 -53 -34 -53 -4 0 -22 -14 -40 -30 -18 -17 -34 -29 -36 -27 -3 3 7 64 25 147 13 62 26 363 23 545 -3 242 -33 425 -68 425 -8 0 -14 -3 -14 -6z" />
    <path d="M10918 13964 c-2 -9 11 -31 28 -50 36 -38 51 -87 69 -219 3 -27 12 -70 19 -95 17 -56 12 -568 -5 -645 -14 -62 -28 -90 -29 -57 0 12 -4 30 -9 40 -5 9 -12 25 -15 35 -3 9 -10 17 -15 17 -6 0 -7 -7 -4 -17 4 -11 3 -14 -5 -9 -27 16 5 -78 42 -127 27 -35 30 -37 47 -21 10 9 16 21 13 26 -3 5 1 19 8 31 8 12 18 30 21 41 6 15 4 17 -14 13 -16 -4 -19 -2 -13 11 16 38 21 131 19 382 -1 211 -4 274 -17 310 -8 25 -16 76 -17 113 -2 77 -37 164 -77 196 -13 10 -24 24 -24 30 0 17 -18 13 -22 -5z" />
    <path d="M13216 13793 c-4 -4 -19 -9 -34 -10 -15 -2 -42 -8 -59 -14 -18 -6 -37 -8 -43 -4 -5 3 -10 -1 -10 -9 0 -19 8 -19 84 -5 32 6 60 9 62 6 2 -2 -2 -24 -11 -48 -32 -98 -46 -157 -48 -219 -2 -52 1 -65 14 -68 13 -2 17 11 22 75 6 65 30 173 62 281 6 17 3 22 -12 22 -11 0 -23 -3 -27 -7z" />
    <path d="M9845 13683 c-28 -6 -69 -26 -77 -38 -4 -5 -8 -21 -8 -35 l0 -25 13 24 c13 26 101 66 124 57 11 -5 12 -10 2 -28 -14 -25 -78 -88 -91 -88 -4 0 -8 -3 -8 -7 0 -5 32 -9 70 -9 59 -2 69 0 59 12 -6 8 -26 14 -43 14 -31 1 -31 1 -10 18 26 22 51 63 49 80 -2 6 -3 17 -4 22 -1 10 -38 12 -76 3z" />
    <path d="M10619 13611 c-1 -17 -3 -35 -4 -41 -1 -5 -3 -21 -4 -34 -1 -16 -8 -25 -24 -28 -23 -4 -23 -3 -20 54 2 32 0 58 -5 58 -8 0 -34 -131 -27 -139 9 -8 55 -9 61 0 14 23 19 4 13 -53 -3 -35 -4 -65 -2 -68 13 -14 33 40 33 87 0 47 3 55 24 63 26 10 44 30 26 30 -6 0 -20 -5 -31 -11 -20 -10 -20 -8 -18 47 2 38 -1 59 -9 62 -7 2 -12 -8 -13 -27z" />
    <path d="M11524 13546 c-33 -37 -27 -127 11 -152 20 -13 27 -13 64 2 46 18 55 48 23 77 -26 24 -47 21 -71 -9 l-21 -27 0 42 c0 23 5 51 10 62 12 21 1 25 -16 5z m91 -99 c17 -13 16 -15 -15 -25 -53 -19 -67 -10 -34 22 19 19 25 20 49 3z" />
    <path d="M9916 13505 c-9 -25 -69 -55 -109 -55 -23 0 -36 -4 -32 -10 8 -13 49 -13 97 2 40 12 82 53 72 69 -8 14 -21 11 -28 -6z" />
    <path d="M10785 13175 c-27 -8 -53 -14 -56 -15 -3 0 -6 -27 -7 -60 l-2 -60 40 6 c82 13 118 -19 60 -55 -16 -10 -28 -20 -25 -23 3 -2 -11 -10 -30 -16 -33 -10 -35 -9 -30 9 8 23 -10 26 -19 3 -19 -49 9 -57 77 -23 61 31 87 58 87 91 0 33 -27 47 -91 50 -36 1 -39 4 -39 29 0 31 24 43 88 43 24 0 32 4 30 15 -4 21 -24 22 -83 6z" />
    <path d="M11090 12984 c-13 -33 -13 -44 2 -44 6 0 9 3 5 6 -3 4 0 19 9 35 9 18 10 29 4 29 -6 0 -15 -12 -20 -26z" />
    <path d="M6328 12943 c-21 -5 -23 -19 -4 -26 10 -4 13 -31 12 -115 l-1 -110 35 -5 c40 -5 85 14 100 42 5 11 10 35 10 55 0 46 -39 80 -76 65 -41 -15 -46 -11 -44 34 3 73 5 70 -32 60z m126 -145 c14 -39 -3 -80 -36 -92 -38 -13 -58 6 -58 58 0 51 15 68 55 64 22 -2 32 -10 39 -30z" />
    <path d="M6572 12843 c-40 -20 -55 -62 -39 -111 14 -43 46 -58 100 -48 52 10 46 25 -7 19 -39 -5 -46 -3 -62 22 -23 35 -9 45 64 45 51 0 53 1 46 23 -16 53 -55 73 -102 50z m49 -13 c10 -6 19 -20 19 -30 0 -17 -7 -20 -45 -20 -51 0 -60 18 -23 44 27 19 24 19 49 6z" />
    <path d="M6769 12848 c-58 -22 -81 -75 -55 -127 17 -32 65 -49 105 -36 35 11 24 21 -18 17 -33 -3 -42 0 -56 21 -23 36 -16 88 13 103 29 14 62 7 62 -13 0 -8 5 -11 10 -8 6 3 10 14 10 24 0 22 -36 32 -71 19z" />
    <path d="M7258 12844 c-20 -11 -32 -11 -57 -1 -25 9 -36 9 -53 -2 -14 -9 -23 -9 -27 -2 -4 6 -18 7 -36 2 -28 -7 -28 -8 -7 -13 20 -5 22 -12 22 -63 0 -41 -5 -61 -16 -69 -12 -10 -8 -12 25 -13 23 -1 41 2 41 8 0 5 -7 9 -15 9 -13 0 -15 11 -13 57 3 53 5 58 31 68 24 8 31 6 43 -10 20 -27 19 -115 -1 -115 -8 0 -15 -4 -15 -9 0 -5 17 -7 37 -5 39 5 58 14 30 14 -14 0 -17 10 -17 53 0 58 12 77 46 77 30 0 34 -7 36 -79 l2 -61 31 1 c16 1 22 3 13 6 -14 3 -18 15 -18 53 0 87 -30 121 -82 94z" />
    <path d="M7460 12853 c-8 -3 -25 -15 -37 -26 -32 -28 -32 -98 -1 -127 25 -23 76 -26 104 -6 17 13 15 14 -25 9 -47 -6 -71 10 -71 49 0 15 9 18 56 18 54 0 55 1 52 27 -3 30 -52 64 -78 56z m38 -26 c6 -5 12 -17 12 -28 0 -16 -7 -19 -40 -19 -33 0 -40 3 -40 20 0 30 37 45 68 27z" />
    <path d="M7602 12844 c-37 -26 -26 -65 23 -83 44 -17 56 -28 48 -47 -13 -34 -79 -27 -86 9 -3 19 -4 20 -11 5 -14 -31 1 -48 41 -48 52 0 85 24 81 58 -2 21 -12 30 -48 42 -33 11 -45 21 -45 35 0 30 44 33 67 3 l18 -23 0 23 c0 15 -8 26 -26 32 -33 13 -36 13 -62 -6z" />
    <path d="M6891 12824 c-37 -47 -25 -115 25 -139 29 -14 37 -14 68 -1 26 11 37 23 45 51 5 20 7 44 4 53 -23 64 -104 85 -142 36z m93 1 c8 -9 18 -31 22 -50 12 -66 -43 -109 -88 -68 -21 19 -25 102 -6 121 17 17 54 15 72 -3z" />
    <path d="M12547 10743 c-9 -16 -19 -68 -23 -116 -8 -99 6 -137 51 -137 14 0 30 -9 37 -20 8 -12 23 -20 38 -19 l25 0 -22 16 c-27 18 -30 33 -7 33 17 0 114 59 114 69 -1 19 -38 51 -55 47 -50 -10 -66 -19 -61 -33 3 -8 2 -11 -3 -8 -6 3 -18 -8 -27 -25 -19 -31 -30 -36 -53 -21 -16 10 -10 112 10 181 16 53 -2 77 -24 33z m182 -162 c10 -7 8 -12 -10 -25 -13 -9 -31 -16 -39 -16 -9 0 -21 -5 -28 -12 -18 -18 -23 -5 -8 22 7 14 20 24 29 24 9 -1 17 2 17 7 0 11 21 11 39 0z" />
    <path d="M12459 10416 c-2 -2 -24 -6 -49 -9 -137 -16 -299 -61 -378 -104 -77 -42 -120 -91 -167 -188 -68 -143 -87 -211 -88 -325 -1 -102 -10 -126 -25 -68 -4 17 -14 34 -22 36 -12 4 -13 2 -2 -9 6 -7 12 -18 12 -23 0 -6 -11 3 -25 19 l-24 30 -2 -30 c-3 -67 3 -80 52 -128 46 -44 79 -56 79 -28 0 10 39 73 60 99 20 23 -6 12 -30 -13 -13 -14 -27 -25 -31 -25 -4 0 -7 53 -8 118 -2 105 1 127 24 193 61 172 129 277 208 321 24 14 86 37 138 51 221 62 355 68 447 22 27 -14 55 -25 61 -25 6 0 11 -3 11 -8 0 -4 11 -19 25 -34 35 -38 67 -134 60 -183 -6 -38 -5 -39 10 -20 13 15 15 31 10 65 -3 25 -7 53 -8 63 -1 9 -5 17 -9 17 -4 0 -8 6 -8 13 0 7 -15 32 -32 56 -36 46 -134 99 -198 107 -19 3 -47 7 -61 9 -15 2 -28 2 -30 1z" />
    <path d="M12245 10156 c-80 -17 -145 -49 -204 -102 -91 -82 -131 -176 -133 -317 -1 -75 3 -100 20 -133 31 -60 75 -104 106 -104 31 0 45 25 27 49 -6 9 -25 44 -42 79 -26 52 -30 70 -25 106 9 59 68 126 138 156 63 28 188 38 241 21 48 -16 103 -69 134 -127 65 -129 96 -421 54 -516 -17 -37 -110 -148 -124 -148 -3 0 -12 6 -20 14 -7 8 -38 29 -68 47 -30 18 -56 36 -59 41 -8 10 -88 38 -111 38 -11 0 -19 -4 -19 -10 0 -5 11 -10 25 -10 13 0 41 -11 61 -25 20 -14 43 -25 50 -25 8 0 14 -5 14 -10 0 -6 23 -24 50 -41 28 -17 50 -36 50 -42 -1 -14 -65 -87 -77 -87 -4 0 -28 14 -53 31 -41 28 -106 61 -243 124 -80 36 -191 58 -257 52 -84 -9 -251 -52 -322 -83 -71 -31 -185 -111 -223 -156 l-25 -30 -67 67 c-119 118 -230 168 -418 187 -186 18 -290 -4 -487 -103 -263 -132 -434 -369 -483 -669 -3 -19 -8 -89 -12 -156 -12 -233 42 -438 164 -621 43 -65 114 -139 227 -237 75 -64 82 -68 119 -63 74 10 87 52 26 85 -43 23 -151 114 -229 192 -207 207 -290 499 -216 759 38 133 113 275 193 366 83 94 270 207 391 235 155 36 325 -2 497 -110 71 -46 114 -89 147 -153 23 -42 23 -42 28 -662 5 -595 6 -622 25 -660 34 -68 108 -71 134 -6 7 16 12 252 15 643 4 583 5 619 24 660 37 84 129 157 278 222 146 64 236 81 355 66 50 -6 104 -17 120 -25 15 -8 33 -15 40 -15 17 0 139 -60 139 -68 0 -4 -42 -50 -92 -103 -223 -231 -252 -272 -289 -422 -18 -69 -20 -112 -20 -303 1 -236 8 -311 41 -438 25 -93 40 -126 86 -183 65 -79 171 -104 293 -67 66 19 145 90 174 153 10 24 32 59 49 76 68 76 152 236 174 335 43 189 47 399 10 566 -21 98 -81 238 -139 324 l-36 53 42 39 c23 21 45 38 48 38 9 0 113 -137 140 -185 78 -138 85 -154 104 -265 3 -19 13 -57 20 -85 18 -61 27 -372 15 -461 -10 -64 -83 -234 -126 -290 -13 -17 -20 -34 -17 -38 4 -3 -1 -6 -10 -6 -9 0 -17 -4 -17 -10 0 -5 -5 -10 -10 -10 -12 0 -82 -76 -91 -99 -6 -14 -8 -14 -14 3 -5 11 -3 21 5 26 10 6 9 9 -1 13 -11 4 -11 6 1 6 18 1 42 48 29 56 -4 3 -11 -6 -15 -20 -3 -14 -9 -23 -12 -20 -3 3 -16 -16 -29 -42 -24 -50 -33 -166 -14 -178 16 -9 91 29 97 50 4 11 12 23 18 27 8 6 7 8 -1 8 -7 0 -21 -8 -31 -17 -9 -10 -29 -23 -44 -30 -27 -12 -27 -12 -24 21 2 27 21 52 108 139 93 92 112 117 147 192 23 47 41 90 41 96 0 5 4 9 8 9 5 0 15 19 23 43 10 31 14 100 14 267 0 221 -1 227 -33 355 -18 72 -47 159 -65 195 -32 65 -107 177 -159 238 l-29 33 101 106 c55 58 107 118 116 134 8 16 19 29 24 29 18 0 71 126 72 171 0 24 4 49 8 54 5 6 11 42 15 80 4 39 9 80 10 93 3 31 -20 39 -45 17 -20 -18 -20 -17 -20 18 0 39 10 46 30 22 14 -17 40 -20 40 -5 0 6 -6 10 -14 10 -11 0 -13 14 -8 65 4 58 3 65 -12 59 -9 -3 -16 -17 -16 -31 0 -14 -8 -42 -19 -62 -58 -114 -61 -122 -46 -127 20 -8 85 26 85 44 0 8 3 13 6 9 9 -8 -7 -158 -16 -152 -8 5 -24 -69 -21 -98 3 -24 -70 -158 -117 -213 -20 -25 -70 -79 -110 -120 l-73 -76 -35 27 c-18 14 -34 28 -34 31 0 3 20 29 45 57 25 29 45 56 45 60 0 5 9 21 19 36 39 55 44 105 31 332 -6 116 -13 220 -15 230 -45 232 -149 373 -290 392 -22 3 -67 0 -100 -7z m274 -1157 c30 -29 33 -49 9 -49 -6 0 -26 -12 -45 -26 -33 -25 -35 -25 -54 -8 -10 9 -19 22 -19 28 0 13 61 86 71 86 4 0 21 -14 38 -31z m-198 -189 c25 -14 24 -22 -4 -51 -29 -29 -95 -121 -122 -169 -10 -19 -29 -53 -42 -75 -12 -22 -27 -50 -33 -63 -5 -12 -19 -43 -30 -70 -12 -26 -28 -59 -36 -74 -20 -37 -43 -219 -43 -346 0 -98 1 -103 27 -129 15 -15 26 -33 24 -41 -2 -8 1 -11 7 -7 18 11 13 45 -6 45 -14 0 -15 2 -4 9 11 7 10 20 -9 72 -17 50 -20 75 -15 121 4 32 8 79 10 105 4 56 32 165 44 173 5 3 12 16 16 30 4 14 18 48 30 75 12 28 25 57 28 65 4 8 13 24 19 35 7 10 31 49 52 85 22 36 54 84 73 107 18 23 33 46 33 52 0 20 15 12 51 -26 60 -64 94 -114 137 -203 53 -111 73 -192 75 -309 4 -190 -26 -294 -129 -446 -88 -130 -111 -151 -171 -158 -29 -3 -65 -13 -82 -21 -47 -25 -141 -21 -182 7 -74 49 -114 158 -128 344 -14 175 -6 307 24 399 37 116 85 188 220 330 66 70 122 131 123 135 5 12 19 11 43 -1z" />
    <path d="M13106 9528 c9 -33 12 -34 29 -12 21 27 18 34 -11 34 -22 0 -24 -3 -18 -22z" />
    <path d="M13010 9533 c-24 -9 -30 -26 -17 -48 13 -21 14 -38 1 -94 -7 -33 -7 -34 22 -27 63 15 84 18 100 12 15 -6 13 -11 -12 -37 -15 -16 -53 -42 -82 -56 -45 -22 -55 -24 -63 -12 -7 11 -9 9 -9 -8 0 -18 6 -23 25 -23 58 0 185 93 185 135 0 21 -35 36 -80 33 -22 -1 -41 0 -43 3 -10 11 -17 110 -8 105 14 -9 62 4 55 15 -6 10 -50 11 -74 2z" />
    <path d="M10394 9466 c-8 -21 12 -52 46 -73 17 -9 30 -20 30 -23 0 -3 -24 -6 -54 -6 -64 -1 -91 -20 -71 -47 12 -17 31 -24 21 -8 -8 12 65 31 92 25 32 -9 27 -30 -13 -56 -42 -28 -46 -44 -6 -23 47 24 91 84 91 125 0 37 -9 46 -82 82 -45 22 -47 22 -54 4z m83 -48 c13 -12 23 -31 23 -42 0 -20 0 -20 -16 2 -8 12 -20 19 -26 16 -6 -4 -8 -2 -5 3 4 6 0 13 -8 17 -8 3 -15 10 -15 16 0 17 22 11 47 -12z" />
    <path d="M10265 9318 c-74 -28 -177 -80 -195 -98 -3 -3 -36 -27 -75 -53 -38 -26 -83 -59 -100 -72 -16 -13 -54 -42 -82 -65 -29 -22 -53 -45 -53 -50 0 -6 -6 -10 -12 -10 -13 -1 -68 -45 -68 -55 0 -3 -13 -24 -30 -47 -16 -22 -30 -47 -30 -55 0 -7 -9 -21 -20 -30 -11 -10 -20 -23 -20 -30 0 -7 -4 -21 -9 -31 -18 -34 -62 -269 -68 -362 -3 -57 -1 -123 6 -165 18 -108 21 -132 26 -250 4 -102 31 -229 55 -260 4 -5 11 -21 15 -35 4 -14 21 -43 37 -66 16 -23 30 -47 32 -55 6 -37 21 -66 45 -91 27 -28 46 -35 55 -19 11 17 -5 39 -25 34 -12 -4 -21 1 -25 13 -3 11 -32 73 -64 139 -73 153 -89 207 -95 330 -3 55 -11 145 -19 200 -32 232 12 528 101 675 25 41 53 83 62 92 9 10 25 27 36 39 11 12 52 45 90 74 39 29 80 62 92 74 12 12 24 21 27 21 2 0 44 27 92 61 87 59 202 119 229 119 7 0 25 6 39 14 20 10 23 16 14 23 -9 7 -29 4 -63 -9z" />
    <path d="M4150 9210 c-71 -11 -205 -54 -279 -89 -71 -33 -182 -111 -210 -148 l-21 -26 -58 56 c-70 68 -93 86 -157 120 -67 36 -164 66 -255 79 -346 49 -745 -166 -908 -489 -46 -90 -69 -164 -90 -288 -38 -222 -11 -456 72 -629 73 -153 134 -231 291 -371 76 -68 80 -70 129 -68 36 1 54 6 63 20 16 21 20 17 -150 150 -157 123 -266 275 -314 438 -36 119 -44 177 -38 273 15 242 157 492 361 638 185 132 431 161 621 72 179 -83 273 -168 302 -274 7 -26 11 -240 11 -632 1 -571 1 -596 20 -633 43 -84 125 -74 144 17 4 17 8 296 10 620 2 466 5 598 16 634 10 33 33 64 82 113 37 37 72 67 77 67 6 0 32 13 58 28 26 16 84 43 128 62 71 29 93 34 194 38 137 6 197 -6 308 -59 187 -89 350 -265 427 -458 45 -116 59 -315 30 -444 -19 -81 -72 -196 -132 -284 -52 -77 -173 -199 -245 -248 -32 -22 -75 -54 -94 -71 l-36 -31 21 -21 c15 -15 34 -22 61 -22 34 0 50 9 107 58 213 180 303 313 371 545 25 85 27 106 27 272 -1 187 -14 283 -55 386 -103 264 -247 406 -544 540 -131 58 -235 76 -345 59z" />
    <path d="M11628 8873 c-31 -8 -19 -29 22 -42 22 -6 40 -15 40 -19 0 -4 -17 -15 -38 -25 -34 -16 -114 -85 -137 -119 -78 -115 -94 -152 -102 -233 -2 -27 -15 -104 -28 -170 -20 -105 -23 -142 -20 -295 5 -204 13 -324 25 -354 5 -11 11 -33 14 -48 4 -18 13 -28 24 -28 13 0 14 2 3 9 -7 5 -11 13 -8 18 4 6 -2 63 -13 127 -26 150 -28 419 -4 528 8 40 21 118 29 173 16 118 29 151 88 231 57 74 112 124 165 148 52 23 55 49 10 67 l-33 13 29 4 c33 4 39 -1 53 -44 8 -22 7 -41 -3 -70 -8 -21 -14 -40 -14 -41 -1 -12 30 14 43 37 15 25 16 36 6 72 -6 24 -16 49 -21 56 -10 12 -92 15 -130 5z" />
    <path d="M9213 8808 c-7 -114 -16 -211 -23 -242 -10 -43 -6 -56 15 -56 15 0 25 73 28 214 1 56 -2 90 -9 93 -6 2 -11 -2 -11 -9z" />
    <path d="M10767 8788 c-2 -7 8 -18 23 -24 42 -18 86 -126 110 -269 6 -38 18 -90 25 -115 21 -69 38 -324 36 -530 -1 -102 -4 -186 -5 -187 -1 -2 -14 25 -28 60 -16 38 -33 63 -43 66 -16 3 -17 -2 -11 -39 4 -23 14 -56 23 -73 8 -17 21 -51 27 -76 12 -48 32 -64 43 -34 3 10 11 24 17 32 6 8 16 35 22 62 8 36 8 46 -1 42 -10 -3 -12 35 -9 167 3 122 0 194 -10 248 -8 42 -15 107 -15 144 -1 75 -59 345 -92 428 -31 79 -98 137 -112 98z" />
    <path d="M11538 8383 c-10 -2 -18 -11 -18 -18 0 -7 -6 -16 -12 -19 -17 -8 22 0 45 9 13 5 17 2 17 -13 0 -32 -29 -92 -45 -92 -14 0 -30 -18 -23 -26 3 -2 19 1 36 7 40 14 73 -2 65 -31 -7 -27 -100 -83 -130 -77 -17 3 -23 0 -23 -14 0 -25 17 -24 84 7 57 26 96 64 96 94 0 21 -31 50 -53 50 -16 0 -15 4 3 41 34 66 18 99 -42 82z" />
    <path d="M10603 8340 c-37 -8 -87 -40 -90 -57 -4 -17 0 -16 39 6 46 26 85 34 91 18 6 -16 -30 -97 -43 -97 -6 0 -10 -4 -10 -9 0 -5 -13 -23 -30 -39 -42 -42 -40 -69 5 -78 41 -7 78 -1 131 21 53 22 35 30 -35 15 -33 -7 -71 -10 -85 -6 -25 6 -25 7 -8 25 28 30 52 64 52 74 0 4 4 6 9 3 10 -7 41 64 41 94 0 26 -28 38 -67 30z" />
    <path d="M13127 8187 l6 -73 -53 -12 c-29 -7 -54 -11 -56 -9 -2 2 4 26 13 54 16 51 12 96 -8 76 -5 -5 -11 -18 -13 -29 -2 -10 -9 -40 -16 -65 -9 -35 -9 -52 -1 -68 11 -19 14 -20 39 -7 15 7 40 16 55 20 l28 7 -7 -72 c-5 -58 -4 -71 7 -67 17 6 28 46 30 115 2 44 6 53 21 53 10 0 18 5 18 10 0 6 -6 10 -14 10 -9 0 -16 17 -20 48 -9 62 -15 82 -26 82 -5 0 -6 -33 -3 -73z" />
    <path d="M6174 7599 c-2 -4 5 -9 17 -12 11 -3 19 -11 18 -19 -1 -7 -1 -58 0 -113 l1 -100 40 -3 c53 -3 87 20 102 69 10 35 9 43 -9 67 -21 28 -57 34 -95 18 -16 -7 -18 -2 -18 48 0 54 -1 56 -26 54 -14 -2 -27 -5 -30 -9z m140 -115 c21 -20 20 -73 -1 -96 -20 -22 -69 -24 -77 -2 -14 36 -6 83 16 98 28 20 43 20 62 0z" />
    <path d="M6429 7507 c-45 -34 -48 -112 -6 -142 22 -15 73 -20 101 -9 31 12 16 22 -24 17 -46 -6 -70 8 -70 42 0 14 6 22 18 22 76 -1 92 3 92 23 0 47 -72 77 -111 47z m62 -7 c10 -6 19 -20 19 -30 0 -17 -7 -20 -45 -20 -51 0 -60 18 -23 44 27 19 24 19 49 6z" />
    <path d="M6622 7505 c-53 -23 -68 -87 -29 -129 29 -32 76 -42 102 -21 19 15 19 16 -11 10 -40 -8 -73 19 -80 65 -6 44 3 58 45 66 27 6 33 4 38 -15 7 -29 23 -27 23 3 0 37 -33 45 -88 21z" />
    <path d="M6765 7494 c-42 -45 -28 -122 27 -145 46 -19 94 8 108 61 12 45 4 69 -32 94 -34 24 -75 20 -103 -10z m85 -2 c26 -21 33 -90 11 -116 -35 -42 -91 -2 -91 64 0 39 8 54 30 63 24 9 26 8 50 -11z" />
    <path d="M7021 7511 c-8 -5 -29 -7 -48 -4 -21 4 -33 2 -33 -6 0 -6 7 -11 15 -11 12 0 15 -13 15 -60 0 -54 -3 -62 -22 -70 -18 -7 -11 -9 32 -9 30 1 48 3 40 6 -23 9 -30 24 -30 69 0 47 14 64 51 64 31 0 39 -15 39 -76 0 -37 -4 -46 -22 -54 -18 -7 -11 -9 31 -9 48 -1 52 1 37 12 -11 8 -20 30 -22 59 -4 40 -1 49 18 62 28 20 33 20 52 0 11 -10 16 -34 16 -75 l0 -59 33 1 c30 0 31 1 10 11 -20 10 -23 19 -23 69 0 81 -25 104 -81 75 -22 -11 -29 -11 -44 0 -22 16 -44 18 -64 5z" />
    <path d="M7303 7505 c-44 -31 -41 -125 5 -149 15 -7 32 -12 37 -11 6 2 22 6 38 9 15 4 27 10 27 15 0 6 -12 6 -27 2 -33 -9 -53 -4 -70 17 -24 30 -14 39 47 46 57 7 61 9 54 29 -16 54 -66 73 -111 42z m77 -20 c0 -2 3 -10 6 -19 5 -13 -2 -16 -40 -16 -33 0 -46 4 -46 14 0 24 40 47 62 35 10 -5 18 -11 18 -14z" />
    <path d="M7478 7513 c-19 -5 -34 -44 -25 -67 3 -7 23 -18 44 -23 31 -7 38 -13 38 -33 0 -21 -5 -26 -33 -28 -27 -3 -35 1 -39 17 -3 12 -9 21 -13 21 -5 0 -5 -12 -1 -27 6 -22 14 -29 37 -31 38 -4 84 31 84 63 0 22 -16 33 -77 50 -14 4 -23 14 -23 26 0 15 7 19 35 19 24 0 35 -5 35 -15 0 -8 5 -15 10 -15 14 0 13 23 -2 38 -12 12 -37 14 -70 5z" />
    <path d="M11225 5091 c-202 -75 -237 -100 -330 -226 -62 -85 -65 -92 -72 -180 -3 -38 -9 -80 -14 -93 -5 -13 -9 -38 -9 -55 -1 -29 -2 -30 -12 -12 -38 68 -86 29 -52 -43 9 -20 20 -39 23 -42 3 -3 11 -14 17 -24 15 -28 45 -45 51 -28 3 6 13 12 24 12 10 0 19 4 19 8 0 9 43 32 58 32 5 0 8 -31 9 -69 2 -113 60 -215 123 -213 50 1 54 14 20 60 -16 23 -30 46 -30 51 0 5 -7 22 -15 37 -18 35 -19 64 -3 116 22 74 125 137 247 153 197 25 318 -157 323 -485 2 -121 0 -140 -20 -182 -12 -26 -35 -60 -50 -76 -15 -16 -64 -68 -110 -116 -52 -55 -87 -84 -95 -80 -6 4 -30 21 -52 39 -91 73 -251 142 -380 165 -102 17 -359 16 -456 -3 -175 -34 -330 -117 -455 -241 -116 -116 -209 -300 -239 -475 -21 -117 -20 -417 1 -519 37 -179 108 -327 211 -438 38 -42 192 -163 229 -181 28 -13 98 -1 102 18 2 10 -18 32 -50 56 -83 63 -230 212 -275 279 -131 195 -179 373 -154 569 30 222 93 351 244 497 109 106 285 183 484 213 113 17 308 13 414 -9 60 -13 267 -102 257 -111 -2 -1 -34 -26 -73 -55 -38 -28 -96 -80 -127 -113 -55 -59 -57 -60 -52 -31 12 62 -40 114 -113 114 -19 0 -22 -3 -14 -17 5 -10 17 -36 27 -58 10 -22 20 -43 22 -47 2 -3 -5 -9 -16 -12 -23 -8 -122 -101 -122 -115 0 -6 -4 -11 -9 -11 -13 0 -76 -109 -101 -176 -20 -54 -22 -76 -21 -269 0 -115 3 -219 5 -230 2 -11 9 -67 16 -125 11 -89 17 -109 38 -133 14 -15 30 -27 35 -27 11 0 1 48 -28 130 -27 77 -35 164 -37 400 -2 160 0 181 22 245 13 39 34 90 48 114 26 47 125 151 180 190 30 21 32 21 32 4 0 -11 -7 -28 -15 -39 -19 -25 -19 -40 0 -24 8 7 -3 -25 -24 -71 -82 -180 -106 -431 -61 -662 12 -60 26 -120 31 -135 6 -15 12 -34 14 -42 12 -58 56 -173 81 -212 36 -57 95 -105 141 -114 19 -4 85 -5 146 -2 136 5 185 26 258 107 52 59 109 179 128 272 36 177 45 585 16 719 -9 41 -21 93 -25 115 -20 93 -82 217 -161 321 -22 28 -39 56 -39 62 0 5 43 55 96 109 102 105 162 196 175 269 11 59 -6 400 -25 494 -32 161 -81 260 -158 321 -94 74 -200 78 -334 12 -100 -49 -193 -161 -215 -258 -11 -50 -12 -51 -65 -66 -29 -9 -55 -15 -56 -13 -6 5 4 144 10 140 4 -2 8 34 10 81 2 46 10 99 18 116 13 30 22 42 87 129 37 50 112 97 237 149 103 43 107 44 215 44 160 -1 239 -35 373 -160 58 -54 71 -72 67 -89 -4 -14 -3 -17 3 -8 12 18 95 -92 115 -154 55 -169 45 -401 -22 -559 -5 -11 -15 -36 -22 -55 -25 -69 -137 -227 -226 -319 -30 -32 -39 -47 -31 -53 10 -5 8 -11 -7 -22 -20 -15 -20 -15 2 -16 13 0 24 8 28 20 3 11 12 20 20 20 13 0 30 28 26 43 -1 5 10 18 24 29 14 11 25 23 25 28 0 4 14 23 31 41 17 18 39 50 50 70 10 21 24 41 29 44 11 7 38 61 75 150 60 146 80 330 49 475 -26 129 -36 153 -97 235 -55 74 -212 235 -229 235 -4 0 -33 12 -63 26 -59 27 -193 54 -260 53 -22 0 -85 -17 -140 -38z m-325 -1723 c8 -13 18 -31 23 -42 6 -15 4 -17 -15 -12 -13 3 -26 6 -29 6 -8 0 -10 70 -1 70 4 0 14 -10 22 -22z m435 -85 c152 -55 237 -265 235 -586 -1 -204 -31 -321 -108 -414 -34 -42 -35 -43 -97 -43 -40 0 -83 -8 -119 -21 -72 -28 -112 -20 -173 33 -110 95 -137 187 -137 458 0 197 11 255 69 375 90 184 193 246 330 198z" />
    <path d="M12152 4848 c-14 -18 -31 -93 -32 -140 l0 -37 46 4 c25 3 50 7 55 11 20 12 20 -29 0 -108 -31 -123 -38 -188 -18 -188 16 0 67 54 67 71 0 15 -18 10 -29 -8 -10 -17 -10 -16 -11 2 0 11 9 54 20 95 11 41 20 94 20 117 l0 42 60 12 c56 11 68 18 55 31 -6 6 -70 -5 -97 -17 -15 -6 -18 -1 -18 33 0 23 -4 44 -10 47 -5 3 -10 16 -11 28 -1 15 -4 11 -9 -12 -4 -19 -6 -49 -4 -67 5 -37 3 -39 -48 -48 l-38 -7 7 48 c3 26 10 51 15 54 5 3 5 16 0 28 -7 19 -10 20 -20 9z" />
    <path d="M10457 4123 c-11 -10 -8 -25 3 -18 6 4 10 -10 10 -34 0 -38 -2 -41 -27 -42 -93 -4 -137 -9 -165 -17 -18 -6 -51 -13 -72 -17 -56 -9 -138 -53 -231 -124 -44 -33 -93 -71 -110 -83 -68 -51 -133 -131 -170 -205 -87 -178 -127 -295 -160 -473 -10 -54 -20 -210 -18 -300 4 -250 15 -339 48 -395 7 -11 18 -42 25 -70 19 -78 80 -233 102 -260 45 -55 48 -58 48 -42 0 9 -4 19 -10 22 -5 3 -10 15 -10 27 0 18 -27 77 -41 88 -4 3 -17 39 -30 80 -13 41 -27 77 -31 78 -5 2 -8 12 -8 22 0 10 -12 52 -27 92 -30 83 -42 225 -36 448 5 166 40 378 73 440 6 12 9 28 6 35 -3 8 -2 15 3 17 4 2 20 35 36 73 49 119 112 215 177 270 92 78 105 88 143 115 20 14 48 35 63 48 37 31 105 61 150 67 20 3 66 12 102 20 89 19 198 25 205 11 6 -14 -1 31 -10 62 -4 12 -3 22 1 22 13 -1 64 -77 64 -95 0 -9 -18 -35 -40 -59 -22 -24 -40 -46 -40 -50 0 -15 77 46 94 75 14 24 21 28 27 18 7 -12 9 -12 9 -1 0 19 -36 69 -86 120 -42 42 -54 48 -67 35z" />
    <path d="M2985 3848 c-189 -16 -320 -59 -455 -149 -177 -119 -299 -297 -358 -524 -24 -92 -26 -116 -27 -310 0 -183 3 -221 22 -296 25 -97 88 -250 129 -312 39 -60 186 -203 232 -226 21 -11 44 -26 51 -35 25 -30 131 -28 131 3 0 5 -39 42 -87 83 -206 172 -287 281 -364 490 -84 229 -34 530 122 729 53 67 140 151 177 169 15 8 34 20 42 26 28 23 145 67 238 90 153 38 306 49 443 30 126 -16 176 -31 288 -82 62 -29 71 -37 61 -49 -7 -8 -16 -15 -21 -15 -29 0 -227 -202 -267 -272 -114 -204 -151 -476 -98 -723 30 -139 53 -204 99 -285 56 -97 138 -173 218 -199 150 -49 271 -23 359 76 70 79 104 161 144 343 16 72 21 162 21 385 0 229 -14 318 -74 484 -82 223 -288 426 -525 515 -114 43 -342 68 -501 54z m799 -575 c56 -29 91 -61 123 -115 63 -104 90 -214 99 -408 14 -290 -75 -505 -229 -554 -61 -19 -158 -11 -224 20 -141 67 -252 317 -240 539 7 114 29 198 80 303 48 101 123 186 192 219 42 20 59 23 109 18 33 -4 74 -14 90 -22z" />
    <path d="M9257 3423 c-6 -10 -22 -311 -19 -343 2 -14 10 -32 18 -40 12 -12 14 -6 15 50 0 36 2 74 4 85 2 11 7 73 11 138 6 103 5 117 -9 117 -9 0 -18 -3 -20 -7z" />
    <path d="M11680 3419 c0 -4 8 -10 18 -13 23 -8 54 -62 88 -152 14 -38 32 -79 40 -92 31 -47 66 -178 74 -272 16 -207 -9 -370 -95 -619 -33 -95 -91 -191 -115 -191 -5 0 -6 19 -2 43 5 37 3 40 -10 29 -19 -15 -31 -96 -19 -120 5 -9 12 -25 15 -34 8 -27 29 -22 66 17 38 39 36 56 -3 25 -14 -11 -28 -20 -31 -20 -12 0 -5 28 12 48 9 11 33 40 52 63 36 43 50 74 99 219 66 196 74 250 67 425 -7 183 -23 279 -61 362 -15 32 -36 79 -46 105 -31 78 -72 152 -94 168 -22 16 -55 22 -55 9z" />
    <path d="M10268 2842 c-37 -17 -48 -35 -28 -47 6 -3 10 -2 10 3 0 20 97 46 120 32 30 -18 -27 -120 -68 -120 -12 0 -13 -3 -5 -11 8 -8 19 -6 41 5 40 21 91 21 99 0 11 -30 -25 -84 -70 -104 -52 -24 -79 -26 -71 -5 4 10 0 15 -11 15 -12 0 -15 -7 -13 -27 4 -36 22 -39 89 -13 39 15 62 31 82 59 45 64 34 104 -31 117 -30 6 -31 8 -17 27 18 26 19 59 3 75 -17 17 -86 13 -130 -6z" />
    <path d="M12122 2816 c-12 -7 -26 -17 -30 -21 -8 -9 52 -1 81 10 30 12 20 -25 -33 -115 -59 -99 -60 -123 -10 -131 55 -8 188 46 216 89 18 27 4 29 -21 2 -28 -31 -205 -79 -205 -55 0 3 23 44 50 92 51 89 55 99 44 127 -7 19 -58 20 -92 2z" />
    <path d="M6180 2227 c-20 -8 -22 -11 -7 -14 15 -4 17 -18 17 -121 l0 -117 44 -3 c36 -2 48 2 75 27 36 33 42 81 15 120 -16 22 -41 25 -94 10 -11 -3 -14 6 -12 48 2 58 -3 65 -38 50z m118 -119 c28 -34 13 -105 -23 -114 -44 -11 -55 1 -55 55 0 37 5 53 18 60 23 14 48 13 60 -1z" />
    <path d="M6424 2136 c-17 -8 -34 -21 -38 -31 -9 -25 -7 -84 4 -105 12 -22 67 -35 105 -26 39 10 29 25 -13 19 -42 -6 -72 14 -72 45 0 14 11 17 57 19 31 2 58 4 60 6 10 10 -22 66 -43 76 -14 6 -26 11 -27 11 -1 -1 -16 -7 -33 -14z m54 -18 c7 -7 12 -20 12 -30 0 -14 -8 -18 -40 -18 -32 0 -40 4 -40 18 0 22 19 42 40 42 9 0 21 -5 28 -12z" />
    <path d="M6770 2131 c-66 -34 -65 -123 1 -160 37 -21 84 0 109 48 16 32 16 40 5 68 -8 17 -27 39 -44 47 -37 19 -29 20 -71 -3z m66 -15 c24 -18 28 -111 4 -126 -31 -20 -60 -11 -74 22 -33 78 12 146 70 104z" />
    <path d="M6598 2123 c-34 -21 -51 -61 -42 -97 12 -48 84 -79 119 -51 20 16 20 16 -4 11 -49 -10 -87 29 -83 87 3 49 74 67 92 25 9 -21 9 -20 7 7 -2 25 -7 30 -32 32 -16 2 -42 -5 -57 -14z" />
    <path d="M6943 2133 c-26 -5 -31 -23 -8 -23 12 0 15 -14 15 -64 0 -53 -3 -65 -17 -69 -10 -3 5 -5 32 -5 28 0 42 2 33 5 -15 4 -18 16 -18 64 0 53 3 61 23 68 41 16 57 -3 57 -70 0 -35 -4 -58 -9 -54 -5 3 -12 1 -16 -5 -4 -6 12 -10 41 -10 41 0 45 2 30 13 -13 10 -17 24 -14 67 3 52 4 55 32 58 37 5 46 -10 46 -80 l0 -58 33 1 c17 1 24 3 15 6 -14 3 -18 15 -18 53 0 93 -26 123 -87 101 -26 -10 -38 -10 -46 -2 -15 15 -50 14 -66 -1 -11 -10 -14 -10 -18 0 -3 6 -8 11 -11 11 -4 -1 -17 -4 -29 -6z" />
    <path d="M7282 2117 c-66 -70 -6 -176 83 -147 19 6 35 16 35 21 0 6 -9 7 -22 3 -29 -10 -68 -9 -78 3 -4 4 -11 18 -15 31 -6 20 -3 22 32 22 61 0 83 10 83 36 0 50 -80 72 -118 31z m72 -3 c30 -29 20 -44 -29 -44 -51 0 -60 18 -23 44 28 20 33 20 52 0z" />
    <path d="M7446 2118 c-9 -12 -16 -28 -16 -34 0 -15 33 -44 51 -44 9 0 24 -6 34 -14 17 -12 17 -16 5 -30 -21 -26 -72 -17 -82 14 -6 21 -7 19 -5 -10 2 -34 3 -35 44 -34 88 1 106 84 22 101 -16 3 -34 11 -40 19 -26 32 32 53 63 22 l20 -20 -4 24 c-2 19 -10 24 -40 26 -28 2 -40 -2 -52 -20z" />
  </g>
</svg>