<svg xmlns="http://www.w3.org/2000/svg" viewBox="0 0 860 1065" role="img" aria-label="Malayalam writing symbols, Moag PDF page 37">
  <g transform="translate(135 55) scale(1)">
    <g data-symbol="tta">
      <g class="writing-ink" fill="none" stroke="currentColor" stroke-width="8" stroke-linecap="round" stroke-linejoin="round" style="stroke-width:var(--writing-stroke-width,8)">
        <path d="M131 43 C98 1 25 11 25 56 C25 76 48 80 76 80" data-part="upper curl" data-movement="1" />
        <path d="M76 80 C139 77 153 137 88 137 C57 137 36 130 27 115" data-part="lower curl" data-movement="2" />
      </g>
      <g class="writing-guides" fill="none" stroke="#557467" stroke-width="1.6" stroke-linecap="round" stroke-linejoin="round" style="stroke:var(--writing-guide-ink,#557467)">
        <defs>
          <marker id="tta-arrow" markerUnits="userSpaceOnUse" viewBox="0 0 10 10" refX="8" refY="5" markerWidth="10" markerHeight="10" orient="auto">
            <path d="M1 1 L8 5 L1 9" fill="none" stroke="#557467" stroke-width="1.6" style="stroke:var(--writing-guide-ink,#557467)" />
          </marker>
        </defs>
        <g data-movement="1">
          <path d="M119 17 C72 -7 19 7 13 45" marker-end="url(#tta-arrow)" />
        </g>
        <g data-movement="2">
          <path d="M31 94 C163 75 151 128 65 125" marker-end="url(#tta-arrow)" />
        </g>
      </g>
      <g class="writing-labels" font-family="sans-serif" font-size="13" text-anchor="middle" fill="#557467" style="fill:var(--writing-guide-ink,#557467)">
        <g data-movement="1">
          <text x="26" y="7" paint-order="stroke fill" stroke="#fff" stroke-width="3" stroke-linejoin="round" style="stroke:var(--writing-background,#fff)">1</text>
        </g>
        <g data-movement="2">
          <text x="90" y="113" paint-order="stroke fill" stroke="#fff" stroke-width="3" stroke-linejoin="round" style="stroke:var(--writing-background,#fff)">2</text>
        </g>
      </g>
    </g>
  </g>
  <text x="215.0" y="343" font-size="22" text-anchor="middle">ട</text>
  <g transform="translate(572.5 55) scale(1)">
    <g data-symbol="ttha">
      <g class="writing-ink" fill="none" stroke="currentColor" stroke-width="8" stroke-linecap="round" stroke-linejoin="round" style="stroke-width:var(--writing-stroke-width,8)">
        <path d="M30 85 C30 30 110 30 110 85 C110 140 30 140 30 85" data-part="oval" data-movement="1" />
      </g>
      <g class="writing-guides" fill="none" stroke="#557467" stroke-width="1.6" stroke-linecap="round" stroke-linejoin="round" style="stroke:var(--writing-guide-ink,#557467)">
        <defs>
          <marker id="ttha-arrow" markerUnits="userSpaceOnUse" viewBox="0 0 10 10" refX="8" refY="5" markerWidth="10" markerHeight="10" orient="auto">
            <path d="M1 1 L8 5 L1 9" fill="none" stroke="#557467" stroke-width="1.6" style="stroke:var(--writing-guide-ink,#557467)" />
          </marker>
        </defs>
        <g data-movement="1">
          <path d="M42 83 C41 54 100 54 99 85 C97 114 45 115 43 83" marker-end="url(#ttha-arrow)" />
        </g>
      </g>
      <g class="writing-labels" font-family="sans-serif" font-size="13" text-anchor="middle" fill="#557467" style="fill:var(--writing-guide-ink,#557467)">
        <g data-movement="1">
          <text x="71" y="90" paint-order="stroke fill" stroke="#fff" stroke-width="3" stroke-linejoin="round" style="stroke:var(--writing-background,#fff)">1</text>
        </g>
      </g>
    </g>
  </g>
  <text x="645.0" y="343" font-size="22" text-anchor="middle">ഠ</text>
  <g transform="translate(80 410) scale(1)">
    <g data-symbol="dda">
      <g class="writing-ink" fill="none" stroke="currentColor" stroke-width="8" stroke-linecap="round" stroke-linejoin="round" style="stroke-width:var(--writing-stroke-width,8)">
        <path d="M40 132 C-9 104 8 21 58 24 C84 25 97 43 97 74" data-part="left arch" data-movement="1" />
        <path d="M97 74 V106 C97 142 151 142 151 106" data-part="left descent" data-movement="2" />
        <path d="M151 106 V24" data-part="middle ascent" data-movement="3" />
        <path d="M151 24 V106 C151 142 205 142 213 112" data-part="right bowl" data-movement="4" />
        <path d="M213 112 C233 78 225 42 199 24" data-part="right return" data-movement="5" />
      </g>
      <g class="writing-guides" fill="none" stroke="#557467" stroke-width="1.6" stroke-linecap="round" stroke-linejoin="round" style="stroke:var(--writing-guide-ink,#557467)">
        <defs>
          <marker id="dda-arrow" markerUnits="userSpaceOnUse" viewBox="0 0 10 10" refX="8" refY="5" markerWidth="10" markerHeight="10" orient="auto">
            <path d="M1 1 L8 5 L1 9" fill="none" stroke="#557467" stroke-width="1.6" style="stroke:var(--writing-guide-ink,#557467)" />
          </marker>
        </defs>
        <g data-movement="1">
          <path d="M24 132 C-25 83 0 12 53 11" marker-end="url(#dda-arrow)" />
        </g>
        <g data-movement="2">
          <path d="M89 32 C114 39 108 83 108 99" marker-end="url(#dda-arrow)" />
        </g>
        <g data-movement="3">
          <path d="M139 112 V32" marker-end="url(#dda-arrow)" />
        </g>
        <g data-movement="4">
          <path d="M164 33 V91 C164 109 176 120 188 121" marker-end="url(#dda-arrow)" />
        </g>
        <g data-movement="5">
          <path d="M203 145 C251 126 250 62 226 34" marker-end="url(#dda-arrow)" />
        </g>
      </g>
      <g class="writing-labels" font-family="sans-serif" font-size="13" text-anchor="middle" fill="#557467" style="fill:var(--writing-guide-ink,#557467)">
        <g data-movement="1">
          <text x="0" y="76" paint-order="stroke fill" stroke="#fff" stroke-width="3" stroke-linejoin="round" style="stroke:var(--writing-background,#fff)">1</text>
        </g>
        <g data-movement="2">
          <text x="112" y="71" paint-order="stroke fill" stroke="#fff" stroke-width="3" stroke-linejoin="round" style="stroke:var(--writing-background,#fff)">2</text>
        </g>
        <g data-movement="3">
          <text x="128" y="77" paint-order="stroke fill" stroke="#fff" stroke-width="3" stroke-linejoin="round" style="stroke:var(--writing-background,#fff)">3</text>
        </g>
        <g data-movement="4">
          <text x="174" y="104" paint-order="stroke fill" stroke="#fff" stroke-width="3" stroke-linejoin="round" style="stroke:var(--writing-background,#fff)">4</text>
        </g>
        <g data-movement="5">
          <text x="248" y="99" paint-order="stroke fill" stroke="#fff" stroke-width="3" stroke-linejoin="round" style="stroke:var(--writing-background,#fff)">5</text>
        </g>
      </g>
    </g>
  </g>
  <text x="215.0" y="698" font-size="22" text-anchor="middle">ഡ</text>
  <g transform="translate(508.59 410) scale(0.974359)">
    <g data-symbol="ddha">
      <g class="writing-ink" fill="none" stroke="currentColor" stroke-width="8" stroke-linecap="round" stroke-linejoin="round" style="stroke-width:var(--writing-stroke-width,8)">
        <path d="M40 132 C-9 104 8 21 58 24 C84 25 97 43 97 74" data-part="left arch" data-movement="1" />
        <path d="M97 74 V106 C97 142 151 142 151 106" data-part="left descent" data-movement="2" />
        <path d="M151 106 V24" data-part="middle ascent" data-movement="3" />
        <path d="M151 24 V106 C151 142 205 142 213 112" data-part="right bowl" data-movement="4" />
        <path d="M213 112 C241 89 241 26 211 24" data-part="right loop ascent" data-movement="5" />
        <path d="M211 24 C177 24 179 69 211 69 C237 69 241 24 211 24" data-part="right loop" data-movement="6" />
      </g>
      <g class="writing-guides" fill="none" stroke="#557467" stroke-width="1.6" stroke-linecap="round" stroke-linejoin="round" style="stroke:var(--writing-guide-ink,#557467)">
        <defs>
          <marker id="ddha-arrow" markerUnits="userSpaceOnUse" viewBox="0 0 10 10" refX="8" refY="5" markerWidth="10" markerHeight="10" orient="auto">
            <path d="M1 1 L8 5 L1 9" fill="none" stroke="#557467" stroke-width="1.6" style="stroke:var(--writing-guide-ink,#557467)" />
          </marker>
        </defs>
        <g data-movement="1">
          <path d="M24 132 C-25 83 0 12 53 11" marker-end="url(#ddha-arrow)" />
        </g>
        <g data-movement="2">
          <path d="M89 32 C114 39 108 83 108 99" marker-end="url(#ddha-arrow)" />
        </g>
        <g data-movement="3">
          <path d="M139 112 V32" marker-end="url(#ddha-arrow)" />
        </g>
        <g data-movement="4">
          <path d="M164 33 V91 C164 109 176 120 188 121" marker-end="url(#ddha-arrow)" />
        </g>
        <g data-movement="5">
          <path d="M183 123 C209 127 228 101 228 86" marker-end="url(#ddha-arrow)" />
        </g>
        <g data-movement="6">
          <path d="M221 35 C212 24 193 32 195 46 C196 57 215 60 218 52" marker-end="url(#ddha-arrow)" />
        </g>
      </g>
      <g class="writing-labels" font-family="sans-serif" font-size="13" text-anchor="middle" fill="#557467" style="fill:var(--writing-guide-ink,#557467)">
        <g data-movement="1">
          <text x="0" y="76" paint-order="stroke fill" stroke="#fff" stroke-width="3" stroke-linejoin="round" style="stroke:var(--writing-background,#fff)">1</text>
        </g>
        <g data-movement="2">
          <text x="112" y="71" paint-order="stroke fill" stroke="#fff" stroke-width="3" stroke-linejoin="round" style="stroke:var(--writing-background,#fff)">2</text>
        </g>
        <g data-movement="3">
          <text x="128" y="77" paint-order="stroke fill" stroke="#fff" stroke-width="3" stroke-linejoin="round" style="stroke:var(--writing-background,#fff)">3</text>
        </g>
        <g data-movement="4">
          <text x="174" y="104" paint-order="stroke fill" stroke="#fff" stroke-width="3" stroke-linejoin="round" style="stroke:var(--writing-background,#fff)">4</text>
        </g>
        <g data-movement="5">
          <text x="219" y="121" paint-order="stroke fill" stroke="#fff" stroke-width="3" stroke-linejoin="round" style="stroke:var(--writing-background,#fff)">5</text>
        </g>
        <g data-movement="6">
          <text x="209" y="48" paint-order="stroke fill" stroke="#fff" stroke-width="3" stroke-linejoin="round" style="stroke:var(--writing-background,#fff)">6</text>
        </g>
      </g>
    </g>
  </g>
  <text x="645.0" y="698" font-size="22" text-anchor="middle">ഢ</text>
  <g transform="translate(74.7619 765) scale(0.904762)">
    <g data-symbol="nna">
      <g class="writing-ink" fill="none" stroke="currentColor" stroke-width="8" stroke-linecap="round" stroke-linejoin="round" style="stroke-width:var(--writing-stroke-width,8)">
        <path d="M40 95 C40 72 72 72 72 95 C72 118 40 118 40 95" data-part="loop" data-movement="1" />
        <path d="M40 95 C12 15 118 7 121 48" data-part="left arch" data-movement="2" />
        <path d="M121 48 V132" data-part="first stem" data-movement="3" />
        <path d="M121 132 V48 C121 12 181 12 181 48" data-part="middle arch" data-movement="4" />
        <path d="M181 48 V132" data-part="second stem" data-movement="5" />
        <path d="M181 132 V48 C181 9 249 12 271 59" data-part="right arch" data-movement="6" />
        <path d="M271 59 C286 93 272 116 249 133" data-part="right descent" data-movement="7" />
      </g>
      <g class="writing-guides" fill="none" stroke="#557467" stroke-width="1.6" stroke-linecap="round" stroke-linejoin="round" style="stroke:var(--writing-guide-ink,#557467)">
        <defs>
          <marker id="nna-arrow" markerUnits="userSpaceOnUse" viewBox="0 0 10 10" refX="8" refY="5" markerWidth="10" markerHeight="10" orient="auto">
            <path d="M1 1 L8 5 L1 9" fill="none" stroke="#557467" stroke-width="1.6" style="stroke:var(--writing-guide-ink,#557467)" />
          </marker>
          <marker id="nna-arrow-0" markerUnits="userSpaceOnUse" viewBox="0 0 10 10" refX="8" refY="5" markerWidth="6" markerHeight="6" orient="auto">
            <path d="M1 1 L8 5 L1 9" fill="none" stroke="#557467" stroke-width="1.6" style="stroke:var(--writing-guide-ink,#557467)" />
          </marker>
        </defs>
        <g data-movement="1">
          <path d="M46 89 C58 76 68 88 64 100 C60 110 47 105 47 99" marker-end="url(#nna-arrow-0)" />
        </g>
        <g data-movement="2">
          <path d="M24 87 C4 0 89 -9 109 14" marker-end="url(#nna-arrow)" />
        </g>
        <g data-movement="3">
          <path d="M110 51 V123" marker-end="url(#nna-arrow)" />
        </g>
        <g data-movement="4">
          <path d="M134 123 V52 C134 30 145 27 154 29" marker-end="url(#nna-arrow)" />
        </g>
        <g data-movement="5">
          <path d="M169 51 V123" marker-end="url(#nna-arrow)" />
        </g>
        <g data-movement="6">
          <path d="M194 123 V53 C194 30 209 25 222 29" marker-end="url(#nna-arrow)" />
        </g>
        <g data-movement="7">
          <path d="M235 15 C307 38 309 102 269 141" marker-end="url(#nna-arrow)" />
        </g>
      </g>
      <g class="writing-labels" font-family="sans-serif" font-size="13" text-anchor="middle" fill="#557467" style="fill:var(--writing-guide-ink,#557467)">
        <g data-movement="1">
          <text x="56" y="100" paint-order="stroke fill" stroke="#fff" stroke-width="3" stroke-linejoin="round" style="stroke:var(--writing-background,#fff)">1</text>
        </g>
        <g data-movement="2">
          <text x="67" y="7" paint-order="stroke fill" stroke="#fff" stroke-width="3" stroke-linejoin="round" style="stroke:var(--writing-background,#fff)">2</text>
        </g>
        <g data-movement="3">
          <text x="99" y="95" paint-order="stroke fill" stroke="#fff" stroke-width="3" stroke-linejoin="round" style="stroke:var(--writing-background,#fff)">3</text>
        </g>
        <g data-movement="4">
          <text x="142" y="72" paint-order="stroke fill" stroke="#fff" stroke-width="3" stroke-linejoin="round" style="stroke:var(--writing-background,#fff)">4</text>
        </g>
        <g data-movement="5">
          <text x="159" y="95" paint-order="stroke fill" stroke="#fff" stroke-width="3" stroke-linejoin="round" style="stroke:var(--writing-background,#fff)">5</text>
        </g>
        <g data-movement="6">
          <text x="204" y="72" paint-order="stroke fill" stroke="#fff" stroke-width="3" stroke-linejoin="round" style="stroke:var(--writing-background,#fff)">6</text>
        </g>
        <g data-movement="7">
          <text x="303" y="96" paint-order="stroke fill" stroke="#fff" stroke-width="3" stroke-linejoin="round" style="stroke:var(--writing-background,#fff)">7</text>
        </g>
      </g>
    </g>
  </g>
  <text x="215.0" y="1053" font-size="22" text-anchor="middle">ണ</text>
</svg>
